<svg id="BACKGROUND" xmlns="http://www.w3.org/2000/svg" viewBox="0 0 750 500"><defs><style>.cls-1{fill:#eaffff;}.cls-2{fill:#efefef;}.cls-3{fill:#e7e2f7;}.cls-4{fill:#ffe8b6;}.cls-5{fill:#ffe855;}.cls-6{fill:#03c0c2;}.cls-7{fill:#008182;}.cls-8{fill:#ffc6ad;}.cls-9{fill:#2f2f2f;}.cls-10{fill:#512891;}.cls-11{fill:#6431b4;}.cls-12{fill:#ffb899;}.cls-13{fill:#ffb400;}.cls-14{fill:#fff;}.cls-15{fill:#ededed;}</style></defs><path class="cls-1" d="M655.33,320.17v0a167.61,167.61,0,0,1-22.92,58.18,169.7,169.7,0,0,1-143.51,79H374.5A169.52,169.52,0,0,1,251.78,404.8q-2.07-2.16-4.06-4.41a171.4,171.4,0,0,1-37.48-69.52,168.13,168.13,0,0,1-4.82-26.18l-.06-.63a294.67,294.67,0,0,1-1.27-46.3c1.84-32.62,10.06-61,26-82.08,18.52-24.59,47.44-39.41,88.82-39.86,1.72,0,3.45,0,5.2,0,114,1.72,110.24,53.71,203.63,76.53,21.34,5.22,47.76,8.91,81.83,10.13.77,0,1.53.06,2.27.11C659.65,225.66,664.79,270.49,655.33,320.17Z"/><path class="cls-2" d="M611.81,222.6C579.5,239.48,529,257.54,468.22,251c-92.28-10-208.44-29.32-264.13,6.81,1.84-32.62,10.06-61,26-82.08,19.5-4.53,44.28-4.71,75.59,3.37,67.83,17.52,155.9,36.65,222.06,33.31,21.34,5.22,47.76,8.91,81.83,10.13C610.31,222.51,611.07,222.55,611.81,222.6Z"/><path class="cls-2" d="M655.33,320.19a167.61,167.61,0,0,1-22.92,58.18c-23.36,7-54.44,9.62-94.7.83-98.35-21.49-206.22-21.1-285.93,25.6q-2.07-2.16-4.06-4.41a171.4,171.4,0,0,1-37.48-69.52c27.85-13.19,97.61-38.82,187.53-18.3C492.6,334.21,601.31,351.42,655.33,320.19Z"/><path class="cls-1" d="M102.45,74A8.13,8.13,0,0,0,110.52,82H283.33A8.1,8.1,0,0,0,291.4,74a8.13,8.13,0,0,0-8.07-8.09h-8.17a21.06,21.06,0,0,0-34.28-6.52,29.31,29.31,0,0,0-33.72-13.18,33.45,33.45,0,0,0-61.78,6.75,21.08,21.08,0,0,0-29.65,13h-5.21A8.11,8.11,0,0,0,102.45,74Z"/><path class="cls-1" d="M421.34,98.18a5.26,5.26,0,0,1-5.24,5.24h-112a5.23,5.23,0,0,1-3.7-8.94,5.18,5.18,0,0,1,3.7-1.54h5.29a13.66,13.66,0,0,1,22.23-4.24,19,19,0,0,1,21.86-8.54,21.69,21.69,0,0,1,40.06,4.38,13.65,13.65,0,0,1,19.23,8.4h3.37A5.25,5.25,0,0,1,421.34,98.18Z"/><path class="cls-3" d="M594.23,174.29l1.42-7.27-6.81-1.33a16.62,16.62,0,0,0-.9-5.33l5.61-3.77-4.13-6.14-5.37,3.6a16.74,16.74,0,0,0-5.51-3.71l1.33-6.81-7.26-1.42-1.38,7a16.1,16.1,0,0,0-4.42.86L563,144.38l-6.15,4.13,3.6,5.37a16.56,16.56,0,0,0-3.7,5.51l-6-1.17-1.43,7.27,6.17,1.21a16.33,16.33,0,0,0,1.31,5.61l-5.38,3.61,4.14,6.15,5.61-3.77a16.66,16.66,0,0,0,5.41,3.14l-1.34,6.85,7.27,1.43,1.45-7.43a16.09,16.09,0,0,0,4.71-1.24l3.61,5.37,6.15-4.13-3.77-5.61a16.9,16.9,0,0,0,2.47-3.77ZM576,171.38a6.79,6.79,0,1,1,1.85-9.42A6.79,6.79,0,0,1,576,171.38Z"/><path class="cls-3" d="M208.81,183l1.43-7.27-6.81-1.33a16.79,16.79,0,0,0-.9-5.32l5.61-3.77L204,159.2l-5.37,3.61a16.38,16.38,0,0,0-5.52-3.71l1.34-6.81-7.27-1.43-1.38,7a16.56,16.56,0,0,0-4.42.86l-3.77-5.61-6.15,4.13,3.61,5.37a16.74,16.74,0,0,0-3.71,5.51l-6-1.17L164,174.24l6.16,1.21a16.51,16.51,0,0,0,1.31,5.61l-5.37,3.61,4.13,6.15,5.61-3.77a16.63,16.63,0,0,0,5.42,3.15l-1.35,6.85,7.27,1.42,1.46-7.42a16.36,16.36,0,0,0,4.7-1.25l3.61,5.38,6.15-4.13-3.77-5.62a16.23,16.23,0,0,0,2.47-3.77Zm-18.25-2.91a6.79,6.79,0,1,1,1.84-9.42A6.8,6.8,0,0,1,190.56,180.13Z"/><path class="cls-4" d="M633.3,182.92l.78-4-3.73-.73a9.12,9.12,0,0,0-.49-2.91l3.07-2.06-2.26-3.36-2.93,2a9.19,9.19,0,0,0-3-2l.73-3.72-4-.78-.75,3.83a9.18,9.18,0,0,0-2.42.47l-2.06-3.06-3.36,2.25,2,2.94a8.87,8.87,0,0,0-2,3l-3.26-.64-.78,4,3.37.66a9.15,9.15,0,0,0,.71,3.06l-2.93,2,2.26,3.36,3.06-2.06a8.93,8.93,0,0,0,3,1.72l-.73,3.75,4,.78.8-4.06a9.05,9.05,0,0,0,2.57-.68l2,2.94,3.36-2.26-2.06-3.07a8.93,8.93,0,0,0,1.35-2.06Zm-10-1.59a3.71,3.71,0,1,1,1-5.15A3.71,3.71,0,0,1,623.32,181.33Z"/><path class="cls-1" d="M506.32,87.3A7.75,7.75,0,0,0,514,95H679a7.74,7.74,0,0,0,7.71-7.72A7.75,7.75,0,0,0,679,79.59h-7.79a20.11,20.11,0,0,0-32.74-6.24,27.94,27.94,0,0,0-32.19-12.58,31.94,31.94,0,0,0-59,6.45A20.11,20.11,0,0,0,519,79.59h-5A7.73,7.73,0,0,0,506.32,87.3Z"/><path class="cls-2" d="M683.45,480.4c0,8.54-121.56,15.47-271.51,15.47s-271.51-6.93-271.51-15.47S262,464.94,411.94,464.94,683.45,471.86,683.45,480.4Z"/><path class="cls-2" d="M232,480.17h4.71l-17.43-45.28a56.91,56.91,0,0,1,6.55-16.61C233,405.69,238.47,391,229.25,392c-8,.88-13.65,17.82-13.26,34.32l-6.26-16.27c-1.08-5.36-2.63-13-2.13-21.64,1.16-20-1.42-39.14-11.09-33.92s-4.61,38.08,9.92,59.22l3.22,8.37c-10.32-15.59-30-28.26-37.58-22.8s6.36,12.67,20.13,17.18c10.49,3.43,16.57,8.07,19.42,10.74l15.22,39.53c-16.41-24.63-47.52-44.61-59.49-36s10.09,20.11,32,27.26c16.52,5.4,26.15,12.71,30.71,16.95Z"/><path class="cls-4" d="M588.69,480.17a20.76,20.76,0,0,0-1.35-13c-5-11.08,1.4-14.75,9.72-20.37s7.06-16.75-1.33-24.43,1.63-17.44-5.56-30.15-20.06-.47-20.6,12.79c-.39,9.53-12.65,10.12-14.52,22.78-1.63,11,13.16,17.64-.59,25.47-4.39,2.5-6.22,6.67-6.67,11.19a21.63,21.63,0,0,0,4.67,15.71Z"/><path class="cls-5" d="M569.57,480.17,582,409.46a1.13,1.13,0,0,0-2.23-.39l-12.46,71.1Z"/><path class="cls-3" d="M623.36,480.17a24.75,24.75,0,0,0,.13-3c-.26-15.48,9.12-16.51,21.68-18.86s16.74-16,10.84-29.2,10.75-19.55,8.8-38-23.19-10.73-30.55,4.49c-5.29,10.94-19.91,5.4-28.51,19.24-7.48,12,6.41,27.28-13.61,29.45-6.39.69-10.64,4.64-13.47,9.69a27.76,27.76,0,0,0-.38,26.22Z"/><path class="cls-5" d="M598.24,480.17,646.48,407a1.44,1.44,0,0,0-2.41-1.59l-49.29,74.72Z"/><path class="cls-5" d="M275.29,457.78c-4.35-34.41-10.93-70.1-18.06-93.22-9.33-30.21-21-50.22-34.66-59.5a2,2,0,1,0-2.23,3.29c23.91,16.21,41.63,68.8,51.32,152.19Z"/><path class="cls-4" d="M246.22,338.22s16.35-2.73,10.43-31.29C256.65,306.93,232.8,318.21,246.22,338.22Z"/><path class="cls-4" d="M250.91,352.78s-2.29-16.42-31-11.27C219.9,341.51,230.54,365.65,250.91,352.78Z"/><path class="cls-4" d="M230.63,315.08s3.32-16.25-25.47-21C205.16,294.12,207.14,320.43,230.63,315.08Z"/><path class="cls-4" d="M260.32,381.59s16.39,2.49,19.65-26.5C280,355.09,253.8,358.39,260.32,381.59Z"/><path class="cls-4" d="M262.41,397s.58-16.57-28.59-16.45C233.82,380.51,240.12,406.12,262.41,397Z"/><path class="cls-4" d="M267.36,417.73s16.34,2.8,20.14-26.12C287.5,391.61,261.27,394.42,267.36,417.73Z"/><polygon class="cls-6" points="655.34 313.83 655.29 313.93 619.94 381.01 606.49 356.53 439.77 448.08 412.87 399.09 262.9 481.44 205.06 481.44 423.87 361.28 450.77 410.27 593.09 332.12 579.65 307.64 655.34 313.83"/><polygon class="cls-7" points="655.29 313.93 619.94 381.01 606.49 356.53 439.77 448.08 412.87 399.09 262.9 481.44 229.79 481.44 416.9 378.7 443.81 427.68 655.29 313.93"/><path class="cls-8" d="M345.06,365.4l-9.68,6.66s-.13,4.4,3.77,9.15l11.44-7.57Z"/><path class="cls-9" d="M340.48,377.68c1.44,1.69,2.07,3,.62,5.27-.94,1.48-3.44,16.93-2.66,21.59s-2.75,5-4.68,4.81-12.22-35-12.22-35,9.76-4.67,13.26-4.7S338.49,374.54,340.48,377.68Z"/><path class="cls-10" d="M419.4,269.83s-1,56.83-7.09,68-63.91,38.19-63.91,38.19A25.81,25.81,0,0,1,343.14,365s16.3-14.33,22.75-20.81c9.68-9.73,24-18.15,24-18.15l-1.47-64.57Z"/><path class="cls-10" d="M345.16,361.93s-4.22,2.58-5.4,4c0,0,3.27,10.87,8.88,12.18l4.18-2.66S346.85,368,345.16,361.93Z"/><path class="cls-8" d="M513.45,345l6.06,10.07s4.38.4,9.35-3.21L522,340Z"/><path class="cls-9" d="M525.76,349.84c1.45-1.68,2.65-2.5,5.11-1.41,1.61.71,17.26.86,21.75-.6s7.16,3,5.46,3.9c-9.17,5.08-32.75,17.33-32.75,17.33s-6.08-8.95-6.63-12.4S523,352.28,525.76,349.84Z"/><path class="cls-11" d="M416.45,237.53s63.71,24.58,72,34.31,36.15,70,36.15,70-4.67,8.51-11.27,6.82c0,0-14.2-20.92-19.23-29-5.25-8.41-17.57-18.48-23.54-36.62,0,0-34-1.22-60-5.44-17.45-2.84-29.57-15.38-25.33-32.54,0,0,0-.09,0-.14a3,3,0,0,1,2.33-2Z"/><path class="cls-11" d="M510.07,345.75a29.37,29.37,0,0,0,3.47,4.93s8.31-2.24,12.41-8.56l-2.15-4.25S516.47,343.26,510.07,345.75Z"/><path class="cls-8" d="M546.93,121.57c-2-.45-10.35,4.59-10.71,4.67s-2.05-.37-3.76-.48-2.68.49-3.93,2.85a35.14,35.14,0,0,0-2.21,6.4c-.79.38-1.67.79-2.62,1.22q2.13,3.79,4.52,7.46c1.44-.94,2.72-1.79,3.81-2.52a4.19,4.19,0,0,0,2.47.11c2-.6,3.79-1.26,4.8-1.67.61-.25,1-.41,1-.41l0,0a4.4,4.4,0,0,0,3-.2c2.12-.71,3.47-2.35,3.43-3.4s-1.29-1.58-1.29-1.58a2.6,2.6,0,0,0,.73-1.94c-.11-1.12-2.1-2.08-2.1-2.08a1.94,1.94,0,0,0,0-2.27c-.83-1-3.38.09-3.6.18C540.82,127.68,548.9,122,546.93,121.57Z"/><path class="cls-12" d="M531.38,132.52a.44.44,0,0,1-.22-.05.47.47,0,0,1-.24-.62l.92-2a.5.5,0,0,1,.29-.26.48.48,0,0,1,.37,0,6,6,0,0,0,4.18.64,1.69,1.69,0,0,0,1.12-.8.94.94,0,0,0,0-.76.47.47,0,0,1,.85-.42,1.94,1.94,0,0,1,0,1.53,2.56,2.56,0,0,1-1.71,1.35,6.59,6.59,0,0,1-4.47-.49l-.72,1.56A.49.49,0,0,1,531.38,132.52Z"/><path class="cls-12" d="M540.29,139.22l0,0s-.34.16-1,.41a4.92,4.92,0,0,1-1.14-3.06,3.49,3.49,0,0,0-.67-2.08,3,3,0,0,1-.8-1.71,4.13,4.13,0,0,1,.1-1.55c0-.16.09-.32.13-.45a3.91,3.91,0,0,1,.25-.6.47.47,0,0,1,.63-.2.48.48,0,0,1,.21.63s0,0,0,.1a4.07,4.07,0,0,0-.35,1.78,2.1,2.1,0,0,0,.56,1.35,4.25,4.25,0,0,1,.93,2.62A3.57,3.57,0,0,0,540.29,139.22Z"/><path class="cls-12" d="M533.52,136.16a.48.48,0,0,1-.44-.24.47.47,0,0,1,.18-.64h0s2.73-1.55,2.84-4.23a.47.47,0,0,1,.94,0c-.13,3.22-3.19,4.94-3.32,5A.47.47,0,0,1,533.52,136.16Z"/><path class="cls-13" d="M529.44,143.49s-26.2,16.78-33.74,18.09-30.72-2-30.72-2a65.64,65.64,0,0,1-7-.86c-7-1.28-11.13-3.61-13.54-6.66-4-5.07-1.61-12.41.67-18.23,0,0,3.65,2.89,22,6.74,0,0,26.09,5.08,27.49,5.34,0,0,19.65-6.37,30.53-11.2C525.1,134.67,527.45,142.15,529.44,143.49Z"/><polygon class="cls-13" points="525.27 133.79 521.77 135.35 527.02 145.96 530.3 144.14 525.27 133.79"/><path class="cls-13" d="M458,158.68c-7-1.28-11.13-3.61-13.54-6.66-1.55-6.47-2.52-13.58.07-15.36C444.48,136.66,452,150.68,458,158.68Z"/><path class="cls-7" d="M373.68,252.93l-25.13,54.75a4.3,4.3,0,0,1-5.7,2.12l-89.13-40.92a4.29,4.29,0,0,1-2.11-5.69l25.13-54.76a4.29,4.29,0,0,1,5.7-2.11l89.13,40.91A4.3,4.3,0,0,1,373.68,252.93Z"/><path class="cls-6" d="M360.05,282.62l13.63-29.69a4.3,4.3,0,0,0-2.11-5.7l-89.13-40.91a4.29,4.29,0,0,0-5.7,2.11l-13.63,29.69Z"/><path class="cls-11" d="M344.75,224.4l-4,8.69-4.41-2,3.87-8.44-4.27-2-.22-.09-2.6-1.2-.32-.14L321.53,214l-3.87,8.45-4.41-2,4-8.68a4.58,4.58,0,0,1,6.07-2.26l10.58,4.86.8.36,1.47.68.31.14,6,2.77A4.59,4.59,0,0,1,344.75,224.4Z"/><path class="cls-11" d="M335.73,220.57l-2.6-1.2-.32-.14a38.81,38.81,0,0,1,1.08-4.85l.8.36,1.47.68A23.52,23.52,0,0,0,335.73,220.57Z"/><rect class="cls-11" x="314.45" y="217.49" width="3.44" height="4.85" transform="translate(-15.59 415.51) rotate(-65.34)"/><rect class="cls-11" x="337.55" y="228.09" width="3.44" height="4.85" transform="translate(-11.76 442.69) rotate(-65.34)"/><path class="cls-11" d="M289.47,245l-4,8.67a.93.93,0,0,1-1.24.46l-4.45-2a1,1,0,0,1-.46-1.24l4-8.67a.93.93,0,0,1,1.24-.47l4.45,2A.94.94,0,0,1,289.47,245Z"/><path class="cls-11" d="M289.47,245l-2,4.33-6.14-2.82,2-4.33a.93.93,0,0,1,1.24-.47l4.45,2A.94.94,0,0,1,289.47,245Z"/><path class="cls-11" d="M343.82,269.92l-4,8.68a.94.94,0,0,1-1.24.46L334.14,277a.94.94,0,0,1-.46-1.23l4-8.68a.93.93,0,0,1,1.24-.46l4.45,2A.93.93,0,0,1,343.82,269.92Z"/><path class="cls-11" d="M343.82,269.92l-2,4.34-6.15-2.82,2-4.34a.93.93,0,0,1,1.24-.46l4.45,2A.93.93,0,0,1,343.82,269.92Z"/><path class="cls-8" d="M340.25,217.3a30,30,0,0,1-2.84-1.3,1.14,1.14,0,0,0-.18-1,1.21,1.21,0,0,0-2,0,9.87,9.87,0,0,0-1.51,4.58l1.28.65s-1.16,1.44-2.19,1.19a1.67,1.67,0,0,1-1.21-1.84s-.71,1.26-1.77.82a1.94,1.94,0,0,1-1.07-1.71,1.62,1.62,0,0,1-2.45-.91s-1.75.68-2.09-.84,1.91-6.12,1.91-6.12a49.37,49.37,0,0,1,6.94-12c.6-1.33,1.32-2.91,2.14-4.66,1.78,1.25,3.64,2.41,5.43,3.65L343.9,200c-1.62,2.15-3,3.91-3.85,5a21.92,21.92,0,0,1,0,3.65C339.74,210.86,341.18,215,340.25,217.3Z"/><path class="cls-5" d="M385.9,167.17l23.32-9.54s9.7-16.71,3.83-27.75c0,0-24,11-36.27,17.92,0,0-18.34,9.92-24.49,16.72l-19.08,32.34s5.73,6.57,9.65,6.15c7.07-9.61,17-23.41,18.87-28Z"/><path class="cls-5" d="M334.06,194.61a6,6,0,0,0-2.58,4l10.58,6.91a13.09,13.09,0,0,0,2.83-3.86Z"/><path class="cls-5" d="M444,233c-1.32,7.2,0,16.25,0,16.25-9.52-3.78-23.71-10.88-37.26-4.92A36.62,36.62,0,0,1,385,246.4a85,85,0,0,1,2.1-25c3.17-12.55,6.3-28.27,7.41-34.46.93-5.23,1.84-10.18,2.72-14.78.55-2.89,1.1-5.64,1.63-8.24h0c3.07-14.92,4.41-27.72,6.78-29.67,6.67-5.52,22.08-11,22.08-11L438,126.15s11,8.54,10.94,14.77c-1,54.88-2.43,55.26-3.49,71.94C445.17,217.82,445.35,225.39,444,233Z"/><path class="cls-13" d="M396.36,223.17l-.32,0a.69.69,0,0,1-.64-.75.7.7,0,0,1,.75-.65h.17c1.63.12,14.62.88,23.85-2.56a46.28,46.28,0,0,0,18.92-13.72.7.7,0,0,1,1.13.84,46.91,46.91,0,0,1-19.56,14.2C411.27,224,398.6,223.32,396.36,223.17Z"/><path class="cls-13" d="M428.87,223.89a.69.69,0,0,0-1-.61c-5.68,3.1-16.07,7.5-27.3,5.83a.7.7,0,0,0-.21,1.39,35.89,35.89,0,0,0,4.23.37c9.92.26,18.81-3.56,23.95-6.37a.67.67,0,0,0,.36-.61Z"/><path class="cls-13" d="M417.49,155.51a75.13,75.13,0,0,1-19.9,14.66c.55-2.89,1.16-5.87,1.69-8.47h0l1.14-.41Z"/><polygon class="cls-14" points="442.98 205.38 436.65 224 428.87 206.22 434.5 145.42 434.65 143.04 437.5 142.74 437.78 145.96 442.98 205.38"/><polygon class="cls-15" points="437.78 145.96 436.36 147.61 434.5 145.42 434.65 143.04 437.5 142.74 437.78 145.96"/><polygon class="cls-14" points="439.76 138.46 436.35 145.83 431.03 137.94 436.35 131.46 439.76 138.46"/><path class="cls-13" d="M423.55,132.24a13.29,13.29,0,0,1-.14-6.54,5.16,5.16,0,0,1,.52-1.47c1.31-2.11,4.3-1.16,4.3-1.16,1.45,6.2,8.12,8.39,8.12,8.39L430,141.71S425.74,140.34,423.55,132.24Z"/><path class="cls-13" d="M440.35,125.87s4,3.75,2.8,8.23l-1.81,7.61-5-10.25A21.82,21.82,0,0,0,440.35,125.87Z"/><path class="cls-12" d="M443.31,118.32l-2.12,6.58-1.36,4.2c-.24.75-1.36,2.54-2.14,2.51a13.09,13.09,0,0,1-9.89-5.51l1.46-10.24a39.1,39.1,0,0,1,5.79-.58h0Z"/><path class="cls-12" d="M443.31,118.32l-2.12,6.58a15.72,15.72,0,0,1-7-9.59l.86,0Z"/><path class="cls-8" d="M453.7,94.31a86.15,86.15,0,0,1,1,11.16s0,0,0,0h0c0,.85,0,1.66-.1,2.39,0,.43-.08.88-.14,1.34-.1.84-.17,1.78-.25,2.78,0,0,0,.1,0,.16a37.93,37.93,0,0,1-.53,4.4h0a16.29,16.29,0,0,1-.46,1.89c-.11.35-.23.68-.37,1-1.78,4.33-3.08,7.78-14,.47-5-3.36-10.71-2.29-13.1-8.41l0-.11v0a62.47,62.47,0,0,1-3.1-11.69,9.21,9.21,0,0,1,3.12-8.57c6.72-5.71,15-5.63,20.6-4.61A9.17,9.17,0,0,1,453.7,94.31Z"/><path class="cls-12" d="M453.17,118.49c-.11.35-.23.68-.37,1a4.17,4.17,0,0,1-.5,0,5.09,5.09,0,0,1-2.28-.85.48.48,0,0,1,.57-.77,4.15,4.15,0,0,0,1.79.66A3,3,0,0,0,453.17,118.49Z"/><path class="cls-12" d="M433.86,109.35A5.57,5.57,0,0,0,437,107s-.41,4.94-4.36,4.9Z"/><path class="cls-9" d="M455.71,87.37c3.23-3.5,3.24-9.23-1.69-10-8.37-1.32-13.15-3-18.23-3.16s-7.6,5.56-12.82,7S414.45,91.78,416.12,97c.25.78.49,1.49.72,2.17a65,65,0,0,0,10.07,18.53l.47.62c.31.42,2.9,1,5.41-3.09a11.76,11.76,0,0,0,2-6.14c-5-.67-8.72-6.84-6.51-10.1a3.93,3.93,0,0,1,2.3-1.27c2.93-.28,5.33,1.46,5.94,3.31s1,3.19,1,3.19l2.88.24A43.38,43.38,0,0,1,439,98c-.07-1.72,2.54-1.1,2.09-4.37s-3.28-3.67-2.06-4.93,9.49-.26,11.89,1.09S455.71,87.37,455.71,87.37Z"/><path class="cls-12" d="M434.82,104.71a.42.42,0,0,1-.45-.23,6.52,6.52,0,0,0-4.29-3.11.42.42,0,0,1,.14-.83,7.27,7.27,0,0,1,4.9,3.57.42.42,0,0,1-.19.56Z"/><path class="cls-12" d="M431.75,103.89a.36.36,0,0,1-.23,0,.42.42,0,0,1-.24-.54,3.92,3.92,0,0,1,1.31-1.54.42.42,0,1,1,.48.69,3.07,3.07,0,0,0-1,1.16A.41.41,0,0,1,431.75,103.89Z"/><path class="cls-9" d="M451.62,100.11c.18.92-.16,1.76-.74,1.87s-1.21-.54-1.39-1.47.16-1.76.75-1.88S451.45,99.18,451.62,100.11Z"/><path class="cls-9" d="M444.71,96.17s4.1-2.6,7.79-1.77l0,2s-5.09.53-7.42,2A3.35,3.35,0,0,1,444.71,96.17Z"/><path class="cls-12" d="M454.13,99.63s3,5.38,3.23,7.92c.12,1.43-3.72,2.38-3.72,2.38Z"/><path class="cls-14" d="M454.17,112s0,.1,0,.16a37.93,37.93,0,0,1-.53,4.4l-.33,0c-3.55.13-4.72-2.77-5.1-4.35Z"/><path class="cls-5" d="M531.71,202.9a6.85,6.85,0,1,1,6.85-6.85A6.85,6.85,0,0,1,531.71,202.9Zm0-11.54a4.7,4.7,0,1,0,4.7,4.69A4.69,4.69,0,0,0,531.71,191.36Z"/><path class="cls-5" d="M556.35,226.91a6.85,6.85,0,1,1,6.85-6.84A6.85,6.85,0,0,1,556.35,226.91Zm0-11.54a4.7,4.7,0,1,0,4.7,4.7A4.7,4.7,0,0,0,556.35,215.37Z"/><path class="cls-6" d="M564.81,249.15a1.07,1.07,0,0,1-1.07-1.07v-4.74a1.07,1.07,0,0,1,2.14,0v4.74A1.07,1.07,0,0,1,564.81,249.15Z"/><path class="cls-6" d="M564.81,257.44a1.07,1.07,0,0,1-1.07-1.08v-4.73a1.07,1.07,0,0,1,2.14,0v4.73A1.07,1.07,0,0,1,564.81,257.44Z"/><path class="cls-6" d="M571.45,250.93H567.2a1.08,1.08,0,0,1,0-2.15h4.25a1.08,1.08,0,1,1,0,2.15Z"/><path class="cls-6" d="M562.42,250.93h-4.26a1.08,1.08,0,0,1,0-2.15h4.26a1.08,1.08,0,0,1,0,2.15Z"/><path class="cls-6" d="M527,222.62a1.07,1.07,0,0,1-1.08-1.07v-4.74a1.08,1.08,0,0,1,2.15,0v4.74A1.07,1.07,0,0,1,527,222.62Z"/><path class="cls-6" d="M527,230.91a1.08,1.08,0,0,1-1.08-1.08V225.1a1.08,1.08,0,0,1,2.15,0v4.73A1.07,1.07,0,0,1,527,230.91Z"/><path class="cls-6" d="M533.66,224.4h-4.25a1.08,1.08,0,0,1,0-2.15h4.25a1.08,1.08,0,1,1,0,2.15Z"/><path class="cls-6" d="M524.62,224.4h-4.25a1.08,1.08,0,0,1,0-2.15h4.25a1.08,1.08,0,1,1,0,2.15Z"/><path class="cls-11" d="M278.59,135.77a6.85,6.85,0,1,1,6.85-6.84A6.85,6.85,0,0,1,278.59,135.77Zm0-2.15a4.7,4.7,0,1,0-4.7-4.69A4.7,4.7,0,0,0,278.59,133.62Z"/><path class="cls-11" d="M303.52,158.38a6.85,6.85,0,1,1,6.84-6.84A6.85,6.85,0,0,1,303.52,158.38Zm0-2.15a4.7,4.7,0,1,0-4.7-4.69A4.7,4.7,0,0,0,303.52,156.23Z"/><path class="cls-6" d="M312.55,119.26a1.08,1.08,0,0,0-1.08-1.08h-4.73a1.08,1.08,0,0,0,0,2.15h4.73A1.07,1.07,0,0,0,312.55,119.26Z"/><path class="cls-6" d="M320.83,119.26a1.07,1.07,0,0,0-1.07-1.08H315a1.08,1.08,0,1,0,0,2.15h4.73A1.07,1.07,0,0,0,320.83,119.26Z"/><path class="cls-6" d="M314.32,125.9v-4.25a1.07,1.07,0,1,0-2.14,0v4.25a1.07,1.07,0,1,0,2.14,0Z"/><path class="cls-6" d="M314.32,116.86v-4.25a1.07,1.07,0,1,0-2.14,0v4.25a1.07,1.07,0,1,0,2.14,0Z"/><path class="cls-6" d="M262.41,156.23a1.07,1.07,0,0,0-1.07-1.07H256.6a1.08,1.08,0,0,0,0,2.15h4.74A1.07,1.07,0,0,0,262.41,156.23Z"/><path class="cls-6" d="M270.7,156.23a1.07,1.07,0,0,0-1.08-1.07h-4.73a1.08,1.08,0,1,0,0,2.15h4.73A1.08,1.08,0,0,0,270.7,156.23Z"/><path class="cls-6" d="M264.19,162.88v-4.25a1.08,1.08,0,1,0-2.15,0v4.25a1.08,1.08,0,0,0,2.15,0Z"/><path class="cls-6" d="M264.19,153.84v-4.25a1.08,1.08,0,1,0-2.15,0v4.25a1.08,1.08,0,0,0,2.15,0Z"/><rect class="cls-5" x="196.22" y="214.53" width="39.18" height="39.18" rx="7.15"/><path class="cls-14" d="M222,226.2a1.57,1.57,0,0,0,0-3.13H209.63a1.57,1.57,0,0,0,0,3.13h3.54a3.73,3.73,0,0,1,3.41,2.19h-6.94a1.56,1.56,0,1,0,0,3.12h6.94a3.76,3.76,0,0,1-3.41,2.19h-3.54a1.57,1.57,0,0,0-1.08,2.7l8.84,8.36a1.58,1.58,0,0,0,2.22-.07,1.56,1.56,0,0,0-.06-2.2l-6-5.67a6.89,6.89,0,0,0,6.31-5.29H222a1.57,1.57,0,0,0,0-3.13h-2.14a6.89,6.89,0,0,0-.94-2.19H222Z"/></svg>