<svg xmlns="http://www.w3.org/2000/svg" viewBox="0 0 160 160"><defs><style>.cls-1{fill:#e9e2f7;}.cls-2{fill:#fff;}.cls-3{fill:#00da9e;}</style></defs><g id="Layer_2" data-name="Layer 2"><circle class="cls-1" cx="24.08" cy="67.96" r="8.58"/><path d="M24.08,76.93a9,9,0,1,1,9-9A9,9,0,0,1,24.08,76.93Zm0-17.16A8.19,8.19,0,1,0,32.26,68,8.2,8.2,0,0,0,24.08,59.77Z"/><path class="cls-2" d="M31.55,138.81V110.1a2.53,2.53,0,0,0,0-.3h1.37a5.51,5.51,0,0,0,5.51-5.51h0V84.38a5.51,5.51,0,0,0-5.51-5.51H15.27a5.51,5.51,0,0,0-5.51,5.51v19.9a5.5,5.5,0,0,0,5.51,5.51h1.36c0,.1,0,.2,0,.3v28.72a4.24,4.24,0,0,0,4.24,4.25H27.3A4.25,4.25,0,0,0,31.55,138.81Z"/><path d="M27.3,143.45H20.84a4.65,4.65,0,0,1-4.64-4.64V110.19h-.93a5.92,5.92,0,0,1-5.91-5.91V84.38a5.91,5.91,0,0,1,5.91-5.9H32.89a5.91,5.91,0,0,1,5.9,5.9v19.91a5.91,5.91,0,0,1-5.9,5.9H32v28.62a4.63,4.63,0,0,1-4.65,4.64Zm-12-64.18a5.12,5.12,0,0,0-5.12,5.11v19.9a5.13,5.13,0,0,0,5.12,5.12h1.79l0,.42a1,1,0,0,0,0,.16.52.52,0,0,0,0,.11v28.72a3.86,3.86,0,0,0,3.85,3.86H27.3A3.88,3.88,0,0,0,30,141.54a3.83,3.83,0,0,0,1.13-2.73V110.1a.51.51,0,0,0,0-.13l-.05-.57h1.8A5.11,5.11,0,0,0,38,104.29V84.38a5.11,5.11,0,0,0-5.11-5.11Z"/><path class="cls-2" d="M68.84,138.81V110.1a2.43,2.43,0,0,0,0-.3h1.37a5.51,5.51,0,0,0,5.51-5.51h0V84.38a5.51,5.51,0,0,0-5.51-5.51H52.55A5.51,5.51,0,0,0,47,84.38v19.9a5.5,5.5,0,0,0,5.51,5.51h1.36c0,.1,0,.2,0,.3v28.72a4.25,4.25,0,0,0,4.25,4.25h6.45A4.25,4.25,0,0,0,68.84,138.81Z"/><path d="M64.59,143.45H58.13a4.65,4.65,0,0,1-4.65-4.64V110.19h-.93a5.92,5.92,0,0,1-5.91-5.91V84.38a5.91,5.91,0,0,1,5.91-5.9H70.17a5.9,5.9,0,0,1,5.9,5.9v19.91a5.9,5.9,0,0,1-5.9,5.9h-.94v28.62a4.63,4.63,0,0,1-4.64,4.64Zm-12-64.18a5.12,5.12,0,0,0-5.12,5.11v19.9a5.13,5.13,0,0,0,5.12,5.12h1.77v.41a1.1,1.1,0,0,0,0,.18.36.36,0,0,0,0,.1v28.72a3.86,3.86,0,0,0,3.86,3.86h6.46a3.86,3.86,0,0,0,3.85-3.86V110.1s0-.09,0-.13a.59.59,0,0,1,0-.14l0-.43h1.79a5.11,5.11,0,0,0,5.11-5.11V84.38a5.11,5.11,0,0,0-5.11-5.11Z"/><path class="cls-2" d="M106.12,138.81V110.1c0-.11,0-.21,0-.3h1.36a5.51,5.51,0,0,0,5.51-5.51h0V84.38a5.51,5.51,0,0,0-5.51-5.51H89.83a5.51,5.51,0,0,0-5.51,5.51v19.9a5.51,5.51,0,0,0,5.51,5.51h1.36c0,.1,0,.2,0,.3v28.72a4.25,4.25,0,0,0,4.25,4.25h6.45A4.25,4.25,0,0,0,106.12,138.81Z"/><path d="M101.87,143.45H95.41a4.64,4.64,0,0,1-4.64-4.64V110.19h-.94a5.91,5.91,0,0,1-5.9-5.91V84.38a5.9,5.9,0,0,1,5.9-5.9h17.62a5.9,5.9,0,0,1,5.9,5.9v19.91a5.91,5.91,0,0,1-5.9,5.9h-.94v28.62a4.63,4.63,0,0,1-4.64,4.64Zm-12-64.18a5.12,5.12,0,0,0-5.12,5.11v19.9a5.13,5.13,0,0,0,5.12,5.12h1.79l-.05.56a.62.62,0,0,0,0,.13v28.72a3.86,3.86,0,0,0,3.85,3.86h6.46a3.86,3.86,0,0,0,3.85-3.86V110.1s0-.09,0-.13l0-.57h1.79a5.11,5.11,0,0,0,5.11-5.11V84.38a5.11,5.11,0,0,0-5.11-5.11Z"/><path class="cls-2" d="M143.4,138.81V110.1c0-.11,0-.21,0-.3h1.37a5.51,5.51,0,0,0,5.5-5.51h0V84.38a5.51,5.51,0,0,0-5.5-5.51H127.11a5.51,5.51,0,0,0-5.51,5.51v19.9a5.5,5.5,0,0,0,5.5,5.51h1.37c0,.1,0,.2,0,.3v28.72a4.25,4.25,0,0,0,4.26,4.25h6.45A4.25,4.25,0,0,0,143.4,138.81Z"/><path d="M139.15,143.45h-6.46a4.65,4.65,0,0,1-4.65-4.64V110.19h-.94a5.91,5.91,0,0,1-5.9-5.91V84.38a5.91,5.91,0,0,1,5.91-5.9h17.63a5.91,5.91,0,0,1,5.9,5.9l0,20.3a5.9,5.9,0,0,1-5.88,5.51h-1v28.62a4.63,4.63,0,0,1-4.64,4.64Zm-12-64.18A5.12,5.12,0,0,0,122,84.38v19.9a5.13,5.13,0,0,0,5.11,5.12h1.8l0,.42a.78.78,0,0,1,0,.16s0,.08,0,.11v28.72a3.86,3.86,0,0,0,3.86,3.86h6.45a3.86,3.86,0,0,0,3.87-3.86V110.1s0-.07,0-.11a1.23,1.23,0,0,1,0-.19v-.4h1.76a5.12,5.12,0,0,0,5.11-5.11V84.38a5.12,5.12,0,0,0-5.11-5.11Z"/><circle class="cls-2" cx="42.72" cy="50.79" r="8.58"/><path d="M42.72,59.77a9,9,0,1,1,9-9A9,9,0,0,1,42.72,59.77Zm0-17.16a8.19,8.19,0,1,0,8.18,8.18A8.19,8.19,0,0,0,42.72,42.61Z"/><circle class="cls-2" cx="80" cy="50.8" r="8.58"/><path d="M80,59.77a9,9,0,1,1,9-9A9,9,0,0,1,80,59.77Zm0-17.16a8.19,8.19,0,1,0,8.18,8.19A8.2,8.2,0,0,0,80,42.61Z"/><circle class="cls-2" cx="117.28" cy="50.79" r="8.58"/><path d="M117.28,59.77a9,9,0,1,1,9-9A9,9,0,0,1,117.28,59.77Zm0-17.16a8.19,8.19,0,1,0,8.19,8.18A8.19,8.19,0,0,0,117.28,42.61Z"/><circle class="cls-2" cx="61.36" cy="25.52" r="8.58"/><path d="M61.36,34.5a9,9,0,1,1,9-9A9,9,0,0,1,61.36,34.5Zm0-17.16a8.19,8.19,0,1,0,8.19,8.18A8.2,8.2,0,0,0,61.36,17.34Z"/><circle class="cls-2" cx="98.64" cy="25.52" r="8.58"/><path d="M98.64,34.5a9,9,0,1,1,9-9A9,9,0,0,1,98.64,34.5Zm0-17.16a8.19,8.19,0,1,0,8.19,8.18A8.19,8.19,0,0,0,98.64,17.34Z"/><path class="cls-3" d="M17.39,81.77c-2.72,0-4.93.7-4.93,3.74v17.62c0,3,2.21,3.74,4.93,3.74Z"/><circle class="cls-1" cx="135.92" cy="67.96" r="8.58"/><path d="M135.92,76.93a9,9,0,1,1,9-9A9,9,0,0,1,135.92,76.93Zm0-17.16A8.19,8.19,0,1,0,144.1,68,8.2,8.2,0,0,0,135.92,59.77Z"/><circle class="cls-1" cx="98.64" cy="67.99" r="8.58"/><path d="M98.64,77a9,9,0,1,1,9-9A9,9,0,0,1,98.64,77Zm0-17.16A8.19,8.19,0,1,0,106.82,68,8.19,8.19,0,0,0,98.64,59.81Z"/><circle class="cls-1" cx="61.36" cy="67.99" r="8.58"/><path d="M61.36,77a9,9,0,1,1,9-9A9,9,0,0,1,61.36,77Zm0-17.16A8.19,8.19,0,1,0,69.55,68,8.19,8.19,0,0,0,61.36,59.81Z"/><path class="cls-3" d="M54.79,81.77c-2.72,0-4.93.7-4.93,3.74v17.62c0,3,2.21,3.74,4.93,3.74Z"/><path class="cls-3" d="M91.83,81.77c-2.72,0-4.93.7-4.93,3.74v17.62c0,3,2.21,3.74,4.93,3.74Z"/><path class="cls-3" d="M129.16,81.77c-2.72,0-4.93.7-4.93,3.74v17.62c0,3,2.21,3.74,4.93,3.74Z"/></g></svg>