<svg xmlns="http://www.w3.org/2000/svg" viewBox="0 0 160 160"><defs><style>.cls-1{fill:#00da9e;}.cls-2{fill:#fff;}.cls-3{fill:#e9e2f7;}.cls-4{fill:#5e5e5e;}</style></defs><g id="Layer_2" data-name="Layer 2"><path class="cls-1" d="M80.77,129.4a50.45,50.45,0,1,1,50.46-50.46A50.52,50.52,0,0,1,80.77,129.4Zm0-100.1a49.66,49.66,0,1,0,49.67,49.64A49.71,49.71,0,0,0,80.77,29.3Z"/><path class="cls-2" d="M29.54,58.56A21.44,21.44,0,0,0,8.68,75.06a19.56,19.56,0,0,0-.49,3A15.66,15.66,0,0,0,8.08,80c0,.38,0,.75,0,1.13a21.1,21.1,0,0,0,1.12,5.74,15.31,15.31,0,0,0,.64,1.63,20.59,20.59,0,0,0,1.79,3.34c.22.33.47.66.7,1A21.44,21.44,0,1,0,29.54,58.56Z"/><path d="M29.54,101.84A22,22,0,0,1,12,93.06l-.11-.16c-.2-.28-.41-.56-.6-.85A20.85,20.85,0,0,1,9.5,88.66,17.2,17.2,0,0,1,8.85,87a21.28,21.28,0,0,1-1.13-5.84c0-.39,0-.77,0-1.15a17.65,17.65,0,0,1,.1-2,21.84,21.84,0,1,1,21.75,23.83Zm0-42.89A21,21,0,0,0,9.06,75.15a20,20,0,0,0-.48,2.94A16.34,16.34,0,0,0,8.48,80q0,.56,0,1.11A20.2,20.2,0,0,0,9.6,86.74a16.79,16.79,0,0,0,.62,1.6A20.63,20.63,0,0,0,12,91.62c.18.28.38.55.58.82l.11.15A21,21,0,1,0,29.54,59Z"/><path d="M42.25,89.93H16.82v-7a7.51,7.51,0,0,1,6.8-7.55H35.4a7.52,7.52,0,0,1,6.85,7.54Zm-24.64-.79H41.46V82.89a6.71,6.71,0,0,0-6.1-6.75H23.66a6.71,6.71,0,0,0-6.05,6.75Z"/><path class="cls-2" d="M80.78,105.09a21.44,21.44,0,0,0-20.86,16.5,20.87,20.87,0,0,0-.5,3,17.87,17.87,0,0,0-.1,1.94c0,.38,0,.76,0,1.13a20.66,20.66,0,0,0,1.12,5.74,15.48,15.48,0,0,0,.64,1.64,20.92,20.92,0,0,0,1.79,3.33c.22.33.47.67.7,1a21.44,21.44,0,1,0,17.18-34.27Z"/><path d="M80.78,148.37a22,22,0,0,1-17.5-8.78l-.08-.11c-.21-.29-.43-.59-.63-.89a21.36,21.36,0,0,1-1.83-3.4,16,16,0,0,1-.65-1.66A21.35,21.35,0,0,1,59,127.68c0-.38,0-.76,0-1.15a17.59,17.59,0,0,1,.1-2,22.22,22.22,0,0,1,.5-3,21.84,21.84,0,1,1,21.25,26.87Zm0-42.88A21,21,0,0,0,60.3,121.68a20.32,20.32,0,0,0-.48,2.95,16.28,16.28,0,0,0-.1,1.9c0,.38,0,.75,0,1.12a20.13,20.13,0,0,0,1.09,5.62,14.93,14.93,0,0,0,.62,1.6,20.63,20.63,0,0,0,1.77,3.28c.19.3.4.59.61.87l.08.1a21,21,0,1,0,16.86-33.63Z"/><path d="M93.49,136.46H68.06v-7a7.5,7.5,0,0,1,6.8-7.54H86.64a7.51,7.51,0,0,1,6.85,7.54Zm-24.64-.79H92.7v-6.25a6.7,6.7,0,0,0-6.1-6.74H74.9a6.7,6.7,0,0,0-6.05,6.74Z"/><path class="cls-2" d="M80.78,12A21.44,21.44,0,0,0,59.92,28.53a21,21,0,0,0-.5,3,17.93,17.93,0,0,0-.1,1.95c0,.37,0,.75,0,1.13a20.66,20.66,0,0,0,1.12,5.73A15.48,15.48,0,0,0,61.11,42,20.92,20.92,0,0,0,62.9,45.3c.22.34.47.67.7,1A21.44,21.44,0,1,0,80.78,12Z"/><path d="M80.78,55.3a22,22,0,0,1-17.5-8.78l-.07-.1c-.22-.29-.44-.6-.64-.9a21.36,21.36,0,0,1-1.83-3.4,16,16,0,0,1-.65-1.66A21.35,21.35,0,0,1,59,34.62c0-.39,0-.77,0-1.15a17.65,17.65,0,0,1,.1-2,22.22,22.22,0,0,1,.5-3.05A21.84,21.84,0,1,1,80.78,55.3Zm0-42.88A21,21,0,0,0,60.3,28.62a20,20,0,0,0-.48,2.94,16.34,16.34,0,0,0-.1,1.91q0,.56,0,1.11a20.13,20.13,0,0,0,1.09,5.62,16,16,0,0,0,.62,1.61,21,21,0,0,0,1.77,3.27c.19.3.41.59.62.88l.07.1A21,21,0,1,0,80.78,12.42Z"/><path d="M93.49,43.4H68.06v-7a7.5,7.5,0,0,1,6.8-7.54H86.64a7.51,7.51,0,0,1,6.85,7.54Zm-24.64-.79H92.7V36.35a6.7,6.7,0,0,0-6.1-6.74H74.9a6.7,6.7,0,0,0-6.05,6.75Z"/><path class="cls-1" d="M23,87.58V78.07a6.35,6.35,0,0,0-3.6,5.17v4.34Z"/><circle class="cls-3" cx="29.52" cy="69.12" r="4.48"/><path d="M29.52,74a4.88,4.88,0,1,1,4.87-4.88A4.89,4.89,0,0,1,29.52,74Zm0-9a4.09,4.09,0,1,0,4.09,4.09A4.1,4.1,0,0,0,29.52,65Z"/><path class="cls-2" d="M130.47,58.56a21.44,21.44,0,0,0-20.86,16.5,20.86,20.86,0,0,0-.49,3A17.87,17.87,0,0,0,109,80c0,.38,0,.75,0,1.13a21.09,21.09,0,0,0,1.11,5.74,15.31,15.31,0,0,0,.64,1.63,19.89,19.89,0,0,0,1.8,3.34c.21.33.46.66.69,1a21.44,21.44,0,1,0,17.18-34.26Z"/><path class="cls-4" d="M130.47,101.84A21.94,21.94,0,0,1,113,93.06l-.09-.12c-.21-.29-.43-.59-.62-.89a19.42,19.42,0,0,1-1.83-3.39,16.25,16.25,0,0,1-.65-1.67,21.29,21.29,0,0,1-1.14-5.84c0-.39,0-.77,0-1.15a17.55,17.55,0,0,1,.11-2,19.24,19.24,0,0,1,.5-3,21.83,21.83,0,1,1,21.24,26.87Zm0-42.89A21,21,0,0,0,110,75.15a19.18,19.18,0,0,0-.49,2.94,18.86,18.86,0,0,0-.1,1.91c0,.37,0,.74,0,1.11a20.58,20.58,0,0,0,1.1,5.63,14.93,14.93,0,0,0,.62,1.6,19.14,19.14,0,0,0,1.77,3.28c.19.29.4.58.6.86l.08.11A21,21,0,1,0,130.47,59Z"/><path d="M143.19,89.93H117.75v-7a7.52,7.52,0,0,1,6.81-7.55h11.77a7.52,7.52,0,0,1,6.86,7.54Zm-24.65-.79H142.4V82.89a6.73,6.73,0,0,0-6.1-6.75H124.59a6.72,6.72,0,0,0-6,6.75Z"/><circle class="cls-3" cx="130.47" cy="69.14" r="4.48"/><path d="M130.47,74a4.88,4.88,0,1,1,4.87-4.87A4.88,4.88,0,0,1,130.47,74Zm0-9a4.09,4.09,0,1,0,4.09,4.09A4.09,4.09,0,0,0,130.47,65.05Z"/><circle class="cls-3" cx="80.76" cy="115.65" r="4.48"/><path d="M80.76,120.53a4.88,4.88,0,1,1,4.87-4.88A4.89,4.89,0,0,1,80.76,120.53Zm0-9a4.09,4.09,0,1,0,4.09,4.08A4.09,4.09,0,0,0,80.76,111.57Z"/><circle class="cls-3" cx="80.76" cy="22.59" r="4.48"/><path d="M80.76,27.46a4.88,4.88,0,1,1,4.87-4.87A4.88,4.88,0,0,1,80.76,27.46Zm0-9a4.09,4.09,0,1,0,4.09,4.09A4.09,4.09,0,0,0,80.76,18.5Z"/><path class="cls-2" d="M119.62,46.51l-1.07-4a.67.67,0,0,0-1.12-.3l-2.93,2.92a.68.68,0,0,0,.3,1.13l4,1.07A.67.67,0,0,0,119.62,46.51Z"/><path d="M119,47.75a1,1,0,0,1-.29,0l-4-1.07a1.07,1.07,0,0,1-.76-.75,1.08,1.08,0,0,1,.28-1l2.93-2.92a1.06,1.06,0,0,1,1.78.48l1.07,4a1.05,1.05,0,0,1-.27,1A1.06,1.06,0,0,1,119,47.75Zm-1.08-5.34a.26.26,0,0,0-.2.08l-2.92,2.92a.29.29,0,0,0-.07.27.26.26,0,0,0,.19.2l4,1.07a.28.28,0,0,0,.34-.34h0l-1.07-4a.26.26,0,0,0-.2-.19Z"/><path class="cls-2" d="M115.7,115.42l4-1.07a.67.67,0,0,0,.3-1.12l-2.92-2.93a.68.68,0,0,0-1.13.3l-1.07,4A.67.67,0,0,0,115.7,115.42Z"/><path d="M115.52,115.84a1.06,1.06,0,0,1-.75-.31,1,1,0,0,1-.28-1l1.07-4a1.05,1.05,0,0,1,.76-.75,1.07,1.07,0,0,1,1,.27l2.92,2.93a1.06,1.06,0,0,1,.28,1,1.05,1.05,0,0,1-.76.75l-4,1.07A.9.9,0,0,1,115.52,115.84Zm1.08-5.34h-.08a.25.25,0,0,0-.19.2l-1.08,4a.28.28,0,0,0,.08.27.26.26,0,0,0,.26.07l4-1.07a.3.3,0,0,0,.2-.2.26.26,0,0,0-.08-.26l-2.92-2.93A.3.3,0,0,0,116.6,110.5Z"/><path class="cls-2" d="M44,113.89l1.27,3.94a.67.67,0,0,0,1.14.24L49.2,115a.67.67,0,0,0-.36-1.11l-4-.86A.67.67,0,0,0,44,113.89Z"/><path d="M45.94,118.69a.91.91,0,0,1-.23,0,1,1,0,0,1-.79-.71L43.64,114a1.05,1.05,0,0,1,.23-1,1.06,1.06,0,0,1,1-.33l4,.87a1.06,1.06,0,0,1,.57,1.75l-2.77,3.08A1.09,1.09,0,0,1,45.94,118.69Zm-1.55-4.92,1.28,3.94a.27.27,0,0,0,.21.18.28.28,0,0,0,.26-.08l2.77-3.07a.29.29,0,0,0,.06-.28.3.3,0,0,0-.21-.18l-4-.87a.3.3,0,0,0-.27.09.29.29,0,0,0-.06.27Z"/><path class="cls-2" d="M47.38,41l-4.05.84A.67.67,0,0,0,43,42.91L45.72,46a.68.68,0,0,0,1.14-.24l1.3-3.93A.68.68,0,0,0,47.38,41Z"/><path d="M46.22,46.62a1.09,1.09,0,0,1-.8-.36l-2.75-3.09a1,1,0,0,1-.22-1,1.07,1.07,0,0,1,.8-.71l4-.84a1,1,0,0,1,1,.33A1.06,1.06,0,0,1,48.53,42l-1.3,3.92a1,1,0,0,1-.79.71Zm1.24-5.27-4.05.84a.3.3,0,0,0-.21.18.29.29,0,0,0,.06.28L46,45.73a.28.28,0,0,0,.27.09.28.28,0,0,0,.2-.18l1.3-3.93a.24.24,0,0,0-.06-.27.25.25,0,0,0-.26-.09Z"/><path class="cls-1" d="M124.09,87.58V78.07a6.35,6.35,0,0,0-3.6,5.17v4.34Z"/><path class="cls-1" d="M74.54,40.86V31.35a6.38,6.38,0,0,0-3.61,5.17v4.34Z"/><path class="cls-1" d="M74.54,134.05v-9.51a6.38,6.38,0,0,0-3.61,5.17v4.34Z"/></g></svg>