<svg xmlns="http://www.w3.org/2000/svg" viewBox="0 0 160 160"><defs><style>.cls-1{fill:#e9e2f7;}.cls-2{fill:#00da9e;}.cls-3{fill:none;stroke:#00da9e;stroke-miterlimit:10;stroke-width:0.79px;}.cls-4{fill:#fff;}</style></defs><g id="Layer_2" data-name="Layer 2"><ellipse class="cls-1" cx="54.15" cy="131.12" rx="17.52" ry="8.67"/><path d="M54.15,140.19c-9.88,0-17.92-4.07-17.92-9.07s8-9.07,17.92-9.07,17.92,4.07,17.92,9.07S64,140.19,54.15,140.19Zm0-17.35c-9.44,0-17.13,3.72-17.13,8.28s7.69,8.28,17.13,8.28,17.13-3.71,17.13-8.28S63.6,122.84,54.15,122.84Z"/><ellipse class="cls-1" cx="54.15" cy="125.48" rx="17.52" ry="8.67"/><path d="M54.15,134.55c-9.88,0-17.92-4.07-17.92-9.07s8-9.07,17.92-9.07,17.92,4.07,17.92,9.07S64,134.55,54.15,134.55Zm0-17.35c-9.44,0-17.13,3.72-17.13,8.28s7.69,8.28,17.13,8.28,17.13-3.72,17.13-8.28S63.6,117.2,54.15,117.2Z"/><ellipse class="cls-1" cx="54.15" cy="119.84" rx="17.52" ry="8.67"/><path d="M54.15,128.91c-9.88,0-17.92-4.07-17.92-9.07s8-9.07,17.92-9.07,17.92,4.07,17.92,9.07S64,128.91,54.15,128.91Zm0-17.35c-9.44,0-17.13,3.71-17.13,8.28s7.69,8.28,17.13,8.28,17.13-3.72,17.13-8.28S63.6,111.56,54.15,111.56Z"/><ellipse class="cls-1" cx="54.15" cy="114.2" rx="17.52" ry="8.67"/><path d="M54.15,123.26c-9.88,0-17.92-4.06-17.92-9.06s8-9.07,17.92-9.07,17.92,4.07,17.92,9.07S64,123.26,54.15,123.26Zm0-17.34c-9.44,0-17.13,3.71-17.13,8.28s7.69,8.28,17.13,8.28,17.13-3.72,17.13-8.28S63.6,105.92,54.15,105.92Z"/><ellipse class="cls-1" cx="54.15" cy="108.34" rx="17.52" ry="8.67"/><path d="M54.15,117.41c-9.88,0-17.92-4.07-17.92-9.07s8-9.06,17.92-9.06,17.92,4.06,17.92,9.06S64,117.41,54.15,117.41Zm0-17.34c-9.44,0-17.13,3.71-17.13,8.27s7.69,8.28,17.13,8.28,17.13-3.71,17.13-8.28S63.6,100.07,54.15,100.07Z"/><path class="cls-2" d="M53.72,95.88V69.6L29.36,45.23c-2.32-2.33-4.15-5.47-4.15-7.15V35.21c0-3.09,5.62-5.82,15.41-7.47a.4.4,0,0,1,.46.32.4.4,0,0,1-.33.46C31.65,30.05,26,32.62,26,35.21v2.87c0,1.44,1.8,4.46,3.92,6.59l24.59,24.6v25l10.62-8V69.27l.11-.12L85.39,49a.4.4,0,1,1,.56.56l-20,20V86.72ZM81.14,28.93h-.07a92.82,92.82,0,0,0-9.79-1.37.39.39,0,0,1-.36-.43.4.4,0,0,1,.43-.35,91.53,91.53,0,0,1,9.87,1.37.41.41,0,0,1,.31.47A.4.4,0,0,1,81.14,28.93Z"/><path class="cls-2" d="M59.81,46a105,105,0,0,1-24.28-2.51c-6.64-1.66-10.3-3.94-10.32-6.43V34.17a.4.4,0,0,1,.79,0V37c0,2.06,3.56,4.12,9.72,5.66a103.89,103.89,0,0,0,24.09,2.49,108.92,108.92,0,0,0,22.41-2.1.4.4,0,0,1,.47.3.39.39,0,0,1-.3.47A109.85,109.85,0,0,1,59.81,46Z"/><path class="cls-3" d="M82,26.35m5.55,25.41"/><ellipse class="cls-1" cx="79.15" cy="144.39" rx="17.34" ry="8.58"/><path d="M79.15,153.37c-9.78,0-17.74-4-17.74-9s8-9,17.74-9,17.73,4,17.73,9S88.93,153.37,79.15,153.37Zm0-17.17c-9.35,0-17,3.68-17,8.19s7.6,8.19,17,8.19,16.94-3.67,16.94-8.19S88.49,136.2,79.15,136.2Z"/><ellipse class="cls-1" cx="79.15" cy="138.81" rx="17.34" ry="8.58"/><path d="M79.15,147.79c-9.78,0-17.74-4-17.74-9s8-9,17.74-9,17.73,4,17.73,9S88.93,147.79,79.15,147.79Zm0-17.17c-9.35,0-17,3.67-17,8.19s7.6,8.19,17,8.19,16.94-3.68,16.94-8.19S88.49,130.62,79.15,130.62Z"/><path class="cls-2" d="M30.2,43.41A104.06,104.06,0,0,0,82,45.57l1.65,2.81s-18.76,5-43.66.78C40,49.16,34,47.93,30.2,43.41Z"/><path class="cls-4" d="M108.16,7A26.22,26.22,0,0,0,82.64,27.21a23.41,23.41,0,0,0-.6,3.67,20.84,20.84,0,0,0-.13,2.38c0,.46,0,.92,0,1.38a25.63,25.63,0,0,0,1.36,7,19.28,19.28,0,0,0,.78,2,24.65,24.65,0,0,0,2.2,4.08c.26.41.57.82.85,1.21A26.23,26.23,0,1,0,108.16,7Z"/><path d="M108.16,59.89A26.8,26.8,0,0,1,86.82,49.18l-.07-.11c-.27-.36-.55-.74-.79-1.11a25.06,25.06,0,0,1-2.23-4.14,18.37,18.37,0,0,1-.79-2,26.12,26.12,0,0,1-1.39-7.13c0-.47,0-.94,0-1.4a22.65,22.65,0,0,1,.12-2.42,27.16,27.16,0,0,1,.61-3.72,26.63,26.63,0,1,1,25.91,32.77Zm0-52.47A25.73,25.73,0,0,0,83,27.31a24,24,0,0,0-.59,3.61,21.26,21.26,0,0,0-.12,2.34c0,.45,0,.91,0,1.37a25.26,25.26,0,0,0,1.34,6.9,19.36,19.36,0,0,0,.77,2,24.33,24.33,0,0,0,2.17,4c.24.37.51.74.76,1.09l.08.1a25.84,25.84,0,1,0,20.7-41.29Z"/><path class="cls-4" d="M117.62,44.93h5.61V36.79a8.65,8.65,0,0,0-7.91-8.73H101a8.65,8.65,0,0,0-7.88,8.74v8.13h24.54Z"/><path d="M123.63,45.32H92.68V36.8a9.11,9.11,0,0,1,8.25-9.14h14.4a9.12,9.12,0,0,1,8.3,9.14Zm-30.16-.79h29.37V36.79a8.32,8.32,0,0,0-7.55-8.34H101a8.31,8.31,0,0,0-7.49,8.35Z"/><circle class="cls-4" cx="108.15" cy="19.97" r="5.48"/><path d="M108.15,25.85A5.88,5.88,0,1,1,114,20,5.88,5.88,0,0,1,108.15,25.85Zm0-11A5.09,5.09,0,1,0,113.24,20,5.09,5.09,0,0,0,108.15,14.88Z"/><rect x="50.98" y="10.25" width="0.79" height="13.75"/><path class="cls-1" d="M52,28.09,54,24.5a.67.67,0,0,0-.58-1H49.31a.67.67,0,0,0-.58,1l2.06,3.59A.68.68,0,0,0,52,28.09Z"/><path d="M51.38,28.82a1.06,1.06,0,0,1-.93-.54L48.38,24.7a1.07,1.07,0,0,1,.93-1.6h4.14a1.06,1.06,0,0,1,.92.53,1.08,1.08,0,0,1,0,1.07L52.3,28.28,52,28.09l.34.19A1,1,0,0,1,51.38,28.82Zm-2.07-4.93a.26.26,0,0,0-.24.14.27.27,0,0,0,0,.28l2.07,3.58a.28.28,0,0,0,.48,0l2.07-3.58a.28.28,0,0,0-.24-.42Z"/><rect x="58.88" y="13.41" width="0.79" height="13.75"/><path class="cls-1" d="M59.86,31.25l2.06-3.59a.67.67,0,0,0-.58-1H57.21a.68.68,0,0,0-.59,1l2.07,3.59A.68.68,0,0,0,59.86,31.25Z"/><path d="M59.27,32a1,1,0,0,1-.92-.54l-2.07-3.58a1.08,1.08,0,0,1,0-1.07,1.06,1.06,0,0,1,.93-.53h4.13a1.07,1.07,0,0,1,.93,1.6L60.2,31.44l-.34-.19.34.19A1.05,1.05,0,0,1,59.27,32Zm-2.06-4.93a.26.26,0,0,0-.24.14.25.25,0,0,0,0,.28L59,31.05a.31.31,0,0,0,.24.14.28.28,0,0,0,.24-.14l2.07-3.58a.25.25,0,0,0,0-.28.26.26,0,0,0-.24-.14Z"/><path class="cls-2" d="M100,42.15V30.84A7.53,7.53,0,0,0,95.75,37v5.17Z"/></g></svg>