<?xml version="1.0" encoding="UTF-8"?>
<svg width="160px" height="160px" viewBox="0 0 160 160" version="1.1" xmlns="http://www.w3.org/2000/svg" xmlns:xlink="http://www.w3.org/1999/xlink">
    <title>product-appointments</title>
    <defs>
        <polygon id="path-1" points="0 0 18.661 0 18.661 24.8787 0 24.8787"></polygon>
        <polygon id="path-3" points="0 0 18.661 0 18.661 24.8787 0 24.8787"></polygon>
        <polygon id="path-5" points="0 160 132.7 160 132.7 0 0 0"></polygon>
    </defs>
    <g id="product-appointments" stroke="none" stroke-width="1" fill="none" fill-rule="evenodd">
        <g id="Group-25" transform="translate(14.000000, 0.000000)">
            <path d="M55.7007,121.3265 C56.1787,99.2445 74.2167,81.4875 96.4147,81.4875 C109.4787,81.4875 121.0987,87.6435 128.5537,97.2055 L128.5537,35.2445 L4.1467,35.2445 L4.1467,117.1805 C4.1487,119.4695 6.0047,121.3245 8.2937,121.3265 L47.6387,121.3265 L55.7007,121.3265 Z" id="Fill-1" fill="#CEBBFC"></path>
            <path d="M17.1109,73.6419 L38.6749,73.6419 C40.1639,73.6419 41.3709,72.4349 41.3709,70.9469 L41.3709,49.3849 C41.3709,47.8959 40.1639,46.6899 38.6749,46.6889 L17.1109,46.6889 C15.6229,46.6899 14.4159,47.8959 14.4159,49.3849 L14.4159,70.9469 C14.4159,72.4349 15.6229,73.6419 17.1109,73.6419" id="Fill-3" fill="#6431B4"></path>
            <g id="Group-7" transform="translate(98.487900, 0.000000)">
                <mask id="mask-2" fill="white">
                    <use xlink:href="#path-1"></use>
                </mask>
                <g id="Clip-6"></g>
                <path d="M9.331,24.8787 C14.481,24.8737 18.655,20.6997 18.661,15.5487 L18.661,9.3297 C18.661,4.1767 14.484,-0.0003 9.331,-0.0003 C4.178,-0.0003 0,4.1767 0,9.3297 L0,15.5487 C0.006,20.6997 4.18,24.8737 9.331,24.8787" id="Fill-5" fill="#6431B4" mask="url(#mask-2)"></path>
            </g>
            <g id="Group-10" transform="translate(15.550400, 0.000000)">
                <mask id="mask-4" fill="white">
                    <use xlink:href="#path-3"></use>
                </mask>
                <g id="Clip-9"></g>
                <path d="M9.331,24.8787 C14.481,24.8737 18.655,20.6997 18.661,15.5487 L18.661,9.3297 C18.661,4.1767 14.484,-0.0003 9.331,-0.0003 C4.178,-0.0003 0,4.1767 0,9.3297 L0,15.5487 C0.006,20.6997 4.181,24.8737 9.331,24.8787" id="Fill-8" fill="#6431B4" mask="url(#mask-4)"></path>
            </g>
            <mask id="mask-6" fill="white">
                <use xlink:href="#path-5"></use>
            </mask>
            <g id="Clip-12"></g>
            <polygon id="Fill-11" fill="#FFFFFF" mask="url(#mask-6)" points="18.553 69.504 37.233 69.504 37.233 50.826 18.553 50.826"></polygon>
            <path d="M19.6978,9.3294 C19.6978,6.4674 22.0178,4.1464 24.8818,4.1464 C27.7438,4.1464 30.0648,6.4674 30.0648,9.3294 L30.0648,15.5494 C30.0648,18.4124 27.7438,20.7324 24.8818,20.7324 C22.0178,20.7324 19.6978,18.4124 19.6978,15.5494 L19.6978,9.3294 Z" id="Fill-13" fill="#FFFFFF" mask="url(#mask-6)"></path>
            <path d="M102.6353,9.3294 C102.6353,6.4674 104.9553,4.1464 107.8193,4.1464 C110.6813,4.1464 113.0023,6.4674 113.0023,9.3294 L113.0023,15.5494 C113.0023,18.4124 110.6813,20.7324 107.8193,20.7324 C104.9553,20.7324 102.6353,18.4124 102.6353,15.5494 L102.6353,9.3294 Z" id="Fill-14" fill="#FFFFFF" mask="url(#mask-6)"></path>
            <path d="M128.4683,17.824 C128.3013,17.014 127.9003,16.291 127.3373,15.728 C126.7753,15.166 126.0513,14.764 125.2413,14.597 C124.9723,14.542 124.6933,14.513 124.4063,14.512 L122.0423,14.512 L122.0423,15.554 C122.0333,23.385 115.6553,29.763 107.8133,29.772 C99.9823,29.763 93.6033,23.385 93.5953,15.549 L93.5953,14.512 L82.1503,14.512 L40.7643,14.512 L40.7633,14.512 L39.1053,14.512 L39.1053,15.554 C39.0963,23.385 32.7183,29.763 24.8753,29.772 C17.0443,29.763 10.6663,23.385 10.6573,15.549 L10.6573,14.512 L8.2933,14.512 C8.0073,14.513 7.7283,14.542 7.4583,14.597 C7.1883,14.653 6.9283,14.735 6.6803,14.84 C5.9363,15.155 5.3033,15.68 4.8573,16.342 C4.4093,17.004 4.1473,17.801 4.1473,18.659 L4.1473,31.098 L128.5533,31.098 L128.5533,18.659 C128.5533,18.373 128.5243,18.094 128.4683,17.824" id="Fill-15" fill="#6431B4" mask="url(#mask-6)"></path>
            <path d="M124.4058,10.366 L122.0428,10.366 L122.0428,14.512 L124.4058,14.512 C126.6958,14.515 128.5508,16.37 128.5528,18.659 L128.5528,31.098 L4.1468,31.098 L4.1468,18.659 C4.1488,16.37 6.0048,14.515 8.2938,14.512 L10.6578,14.512 L10.6578,10.366 L8.2938,10.366 C3.7158,10.371 0.0058,14.081 -0.0002,18.659 L-0.0002,117.18 C0.0058,121.758 3.7158,125.468 8.2938,125.473 L55.8188,125.473 C55.7338,124.399 55.6778,123.316 55.6778,122.22 C55.6778,121.92 55.6948,121.624 55.7008,121.326 L8.2938,121.326 C6.0048,121.324 4.1488,119.469 4.1468,117.18 L4.1468,35.245 L128.5528,35.245 L128.5528,97.199 C128.5808,97.235 128.6058,97.273 128.6348,97.309 C128.9958,97.777 129.3468,98.252 129.6888,98.736 C129.7008,98.751 129.7118,98.767 129.7218,98.782 C130.8268,100.348 131.8218,101.995 132.6998,103.713 L132.6998,18.659 C132.6948,14.081 128.9848,10.371 124.4058,10.366" id="Fill-16" fill="#6431B4" mask="url(#mask-6)"></path>
            <polygon id="Fill-17" fill="#6431B4" mask="url(#mask-6)" points="39.105 14.512 93.595 14.512 93.595 10.366 39.105 10.366"></polygon>
            <path d="M116.6314,141.9739 C116.2254,141.4949 115.8094,141.0069 115.3924,140.5189 C113.0914,137.8529 110.5844,135.2909 107.7644,134.4789 C107.6354,134.4369 107.5194,134.4079 107.4244,134.3859 C107.2824,134.3469 107.1364,134.3179 106.9874,134.2989 C106.9864,134.2989 106.9854,134.2989 106.9854,134.2989 L106.7774,134.2469 L106.6004,134.2469 C106.5834,134.2449 106.5674,134.2439 106.5494,134.2429 C106.5264,134.2399 106.5014,134.2369 106.4764,134.2339 C106.2294,134.2039 106.0314,134.2039 105.9164,134.2039 C104.3724,134.2039 102.9094,134.7609 101.5554,135.8589 L101.4344,135.9559 L101.3924,135.9979 C101.3654,136.0199 101.3404,136.0429 101.3154,136.0659 C100.4164,136.8399 99.6494,137.6709 98.9394,138.4559 L98.6714,138.7519 L98.6684,138.7579 C98.1714,139.3079 97.6614,139.8619 97.1514,140.3039 L97.1244,140.3169 L97.1174,140.3169 L97.1024,140.3169 L97.0034,140.3039 L96.8464,140.2809 C96.7254,140.2459 96.6034,140.2099 96.4754,140.1679 L96.4074,140.1439 C96.4114,140.1449 96.4144,140.1469 96.4184,140.1489 C96.4884,140.1799 96.5404,140.2029 96.5594,140.2119 C96.5244,140.1949 96.4724,140.1699 96.4184,140.1489 C96.3504,140.1189 96.2654,140.0819 96.1724,140.0459 L96.0154,139.9819 L95.9964,139.9739 C95.8304,139.8979 95.3324,139.6559 95.1174,139.5329 L94.5224,139.1919 C93.6944,138.6819 92.7964,138.0439 91.8914,137.3239 L91.7904,137.2399 L91.4264,136.9469 L91.3544,136.8849 C90.9774,136.5759 90.5724,136.2249 90.1684,135.8749 L89.8924,135.6349 C89.7114,135.4739 89.5254,135.3079 89.3184,135.1199 L89.2074,135.0199 C89.1474,134.9619 89.0884,134.9059 89.0294,134.8519 L88.9754,134.8009 L88.1214,133.9739 L88.1104,133.9739 C87.9994,133.8659 87.8814,133.7499 87.7524,133.6209 L87.7334,133.6019 L87.6844,133.5539 C87.3304,133.2139 86.9784,132.8469 86.6114,132.4679 L86.5964,132.4519 L86.5574,132.4119 L86.5534,132.4079 L86.5214,132.3759 L86.4684,132.3239 C86.3614,132.2169 86.2674,132.1239 86.1734,132.0189 L86.1194,131.9599 L86.1154,131.9559 L86.1054,131.9429 L86.0614,131.8919 L86.0154,131.8429 C85.9124,131.7339 85.8134,131.6249 85.7134,131.5159 C85.5904,131.3819 85.4684,131.2479 85.3424,131.1139 L85.3154,131.0839 L85.2854,131.0559 L85.2814,131.0509 L85.2544,131.0239 L85.1274,130.8819 L84.9574,130.6909 L84.8984,130.6239 L84.8814,130.6079 L84.6884,130.3909 C84.6664,130.3629 84.6444,130.3349 84.6214,130.3079 C84.5404,130.2089 84.4564,130.1139 84.3714,130.0189 L84.2954,129.9329 L84.2054,129.8229 L84.1584,129.7739 C82.4784,127.7859 81.2274,126.0009 80.5354,124.6089 L80.5344,124.6099 C80.4634,124.4529 80.3794,124.2829 80.2834,124.0899 C80.2534,124.0219 80.2254,123.9619 80.1994,123.9089 L80.1974,123.9039 L79.9894,123.3409 C79.9874,123.3319 79.9864,123.3239 79.9854,123.3159 L79.9854,123.2769 L79.9624,123.1759 L79.9324,122.9659 C80.2914,122.6109 80.7234,122.2199 81.1764,121.8089 L81.2924,121.7029 C82.1574,120.9299 83.1684,119.9999 83.9864,119.0779 C84.7324,118.2429 87.0104,115.6859 86.0184,112.5569 L85.9794,112.4339 L85.9294,112.3149 L85.9254,112.3059 C85.7444,111.7739 85.4454,111.3899 85.0814,110.9559 L85.0234,110.8869 L84.9604,110.8209 L84.1174,109.9349 L82.1394,107.8709 L81.8944,107.6119 L81.8654,107.5819 L81.8604,107.5779 L81.5274,107.2189 L81.4974,107.1859 L81.4654,107.1549 L81.1064,106.7799 L81.0844,106.7579 L81.0344,106.7079 L80.9134,106.5869 C80.6964,106.3569 80.4774,106.1269 80.2584,105.8969 C80.0384,105.6669 79.8184,105.4369 79.6034,105.2069 L79.5694,105.1719 L79.5354,105.1379 L79.4784,105.0809 L79.4064,105.0089 C79.3044,104.9069 79.2094,104.8139 79.1164,104.7109 L79.0864,104.6769 L79.0544,104.6429 L78.7254,104.3009 L78.7024,104.2759 L78.6954,104.2689 L78.5714,104.1389 C78.4994,104.0509 78.4304,103.9779 78.3704,103.9159 L78.1034,103.6359 C78.1034,103.6359 77.3244,102.8129 76.9344,102.4089 L76.5824,102.0439 L76.2114,101.8599 C75.9564,101.6999 75.5714,101.4659 74.9574,101.0939 L74.2554,100.6679 L73.7514,100.6679 C72.8404,100.4679 72.5054,100.4679 72.3344,100.4679 C69.1344,100.4679 66.7274,102.9769 64.1334,106.0089 C60.2974,110.4939 59.7304,111.6559 60.3884,117.7309 C61.3604,126.7299 67.4404,137.3339 76.6534,146.0949 C85.8324,154.8029 96.2854,159.9999 104.6164,159.9999 C106.3954,159.9999 108.0994,159.7619 109.6804,159.2929 C112.6684,158.4059 118.4164,153.3809 119.5904,149.0989 C120.1004,147.3149 119.1074,144.9079 116.6314,141.9739" id="Fill-18" fill="#0FB5B1" mask="url(#mask-6)"></path>
            <path d="M96.4185,140.1487 C96.4725,140.1697 96.5235,140.1947 96.5595,140.2117 C96.5405,140.2037 96.4885,140.1797 96.4185,140.1487" id="Fill-19" fill="#0FB5B1" mask="url(#mask-6)"></path>
            <path d="M98.2808,89.1302 C88.3658,89.1302 79.4978,93.6012 73.5688,100.6312 C73.6338,100.6452 73.6798,100.6522 73.7518,100.6682 L74.2558,100.6682 L74.9578,101.0932 C75.5718,101.4662 75.9568,101.6992 76.2118,101.8592 L76.5828,102.0442 L76.9338,102.4082 C77.1398,102.6222 77.4528,102.9502 77.7038,103.2142 C82.7388,97.5352 90.0868,93.9532 98.2808,93.9532 C113.2338,93.9532 125.5338,106.2532 125.5338,121.4472 C125.5338,129.4632 121.9958,136.7132 116.4128,141.7172 C116.4848,141.8022 116.5588,141.8892 116.6318,141.9742 C117.7938,143.3512 118.6158,144.6082 119.1228,145.7432 C125.9808,139.8432 130.3558,131.1212 130.3558,121.4472 C130.3558,103.6002 115.8858,89.1302 98.2808,89.1302" id="Fill-20" fill="#0FB5B1" mask="url(#mask-6)"></path>
            <path d="M98.2808,89.1302 C88.3658,89.1302 79.4978,93.6012 73.5688,100.6312 C73.6338,100.6452 73.6798,100.6522 73.7518,100.6682 L74.2558,100.6682 L74.9578,101.0932 C75.5718,101.4662 75.9568,101.6992 76.2118,101.8592 L76.5828,102.0442 L76.9338,102.4082 C77.1398,102.6222 77.4528,102.9502 77.7038,103.2142 C82.7388,97.5352 90.0868,93.9532 98.2808,93.9532 C113.2338,93.9532 125.5338,106.2532 125.5338,121.4472 C125.5338,129.4632 121.9958,136.7132 116.4128,141.7172 C116.4848,141.8022 116.5588,141.8892 116.6318,141.9742 C117.7938,143.3512 118.6158,144.6082 119.1228,145.7432 C125.9808,139.8432 130.3558,131.1212 130.3558,121.4472 C130.3558,103.6002 115.8858,89.1302 98.2808,89.1302 Z" id="Stroke-21" stroke="#0FB5B1" mask="url(#mask-6)"></path>
            <path d="M94.9048,103.8416 C94.9048,100.7066 99.7278,100.7066 99.7278,103.8416 L99.7278,120.9646 L110.8218,124.0996 C113.7168,125.0646 112.5098,129.6466 109.3748,128.9236 L96.8348,125.0646 C95.6288,124.8236 94.9048,123.8586 94.9048,122.6526 L94.9048,103.8416 Z" id="Fill-22" fill="#0FB5B1" mask="url(#mask-6)"></path>
            <path d="" id="Fill-23" fill="#489B95" mask="url(#mask-6)"></path>
            <path d="M83.7282,135.1491 C83.5292,134.9501 81.4702,132.6791 81.4372,132.6411 C81.3772,132.5741 81.2142,132.3881 81.2142,132.3881 C79.2742,130.1001 77.8602,128.0711 77.0102,126.3581 C77.0102,126.3581 76.1452,124.1841 76.1342,124.1361 L76.0632,124.0671 L75.9772,122.6431 C75.9772,122.5331 75.9832,122.4621 75.9922,122.3971 L75.9992,122.3301 C76.0562,121.8891 76.2072,121.4451 76.4382,121.0441 C76.4382,121.0441 77.9582,119.4141 78.5382,118.8871 L78.6482,118.7881 C79.4522,118.0701 80.3602,117.2361 81.0432,116.4661 C82.4212,114.9191 82.4012,114.1741 82.2662,113.7471 C82.2612,113.7361 82.2562,113.7251 82.2512,113.7141 C82.1792,113.6181 82.0712,113.4911 82.0672,113.4871 C82.0672,113.4871 74.6172,105.6791 74.2132,105.2581 L74.1842,105.2311 C73.9792,105.1041 73.3492,104.7211 73.0622,104.5471 C72.7402,104.4741 72.4092,104.4101 72.3122,104.4031 C70.8122,104.4041 69.0002,106.3731 67.1232,108.5671 C63.9042,112.3321 63.7792,112.4791 64.3012,117.3081 C65.1762,125.4091 70.8082,135.1051 79.3672,143.2421 C89.4412,152.8001 100.9572,157.7751 108.5612,155.5201 C110.5242,154.9371 115.0482,150.7791 115.793358,148.0591 C115.8082,147.5971 114.7562,145.8551 113.6222,144.5121 C113.6222,144.5121 108.4732,138.7481 106.6262,138.2481 L105.9162,138.1401 C105.2972,138.1401 104.6952,138.3861 104.0612,138.8931 L103.9772,138.9661 C103.2142,139.6201 101.9372,141.0191 101.9372,141.0191 C101.9372,141.0191 100.3652,142.7531 99.5462,143.4331 L98.5432,144.0181 C98.5322,144.0221 98.5202,144.0261 98.5082,144.0301 L98.3422,144.1671 L97.7432,144.2241 C97.6592,144.2391 97.5622,144.2531 97.4462,144.2531 C97.4462,144.2531 96.0132,144.1361 95.8832,144.0991 C95.6722,144.0391 94.4702,143.5951 94.4702,143.5951 C94.2512,143.5171 93.9172,143.3671 93.3992,143.0811 L93.1132,142.9321 C91.9082,142.2441 90.6442,141.3681 89.3352,140.3201 C89.3352,140.3201 84.1932,135.6291 83.7992,135.2211 L83.7282,135.1491 Z" id="Fill-24" fill="#67E5DF" mask="url(#mask-6)"></path>
        </g>
    </g>
</svg>