<?xml version="1.0" encoding="UTF-8"?>
<svg width="160px" height="160px" viewBox="0 0 160 160" version="1.1" xmlns="http://www.w3.org/2000/svg" xmlns:xlink="http://www.w3.org/1999/xlink">
    <title>product-interact</title>
    <defs>
        <polygon id="path-1" points="0 0 87.03 0 87.03 73.7416 0 73.7416"></polygon>
        <polygon id="path-3" points="0 -2.13162821e-14 82.8908 -2.13162821e-14 82.8908 42.4965 0 42.4965"></polygon>
        <polygon id="path-5" points="0 2.13162821e-14 66.372 2.13162821e-14 66.372 34.0275 0 34.0275"></polygon>
    </defs>
    <g id="product-interact" stroke="none" stroke-width="1" fill="none" fill-rule="evenodd">
        <g id="Group-28" transform="translate(0.000000, 5.000000)">
            <g id="Group-3" transform="translate(39.783900, 0.000000)">
                <mask id="mask-2" fill="white">
                    <use xlink:href="#path-1"></use>
                </mask>
                <g id="Clip-2"></g>
                <path d="M79.387,58.7136 C84.323,53.9676 87.03,48.0076 87.03,41.8486 C87.03,30.6746 78.191,20.6906 64.98,16.8806 C59.95,6.7636 47.435,-0.0004 33.65,-0.0004 C15.095,-0.0004 0,11.9286 0,26.5886 C0,32.7556 2.713,38.7236 7.661,43.4646 L4.305,51.8546 C3.911,52.9026 4.168,54.0966 4.96,54.8796 C5.75,55.6756 6.834,55.9986 8.068,55.5096 L18.901,50.5026 C19.9,50.8836 20.955,51.2366 22.054,51.5466 C27.049,61.6726 39.562,68.4416 53.378,68.4416 C58.445,68.4416 63.506,67.5256 68.054,65.7926 L80.571,73.5676 C80.892,73.6836 81.226,73.7416 81.562,73.7416 C82.33,73.7416 83.052,73.4436 83.593,72.9046 C84.385,72.1096 84.642,70.9196 84.228,69.8206 L79.387,58.7136 Z" id="Fill-1" fill="#0FB5B1" mask="url(#mask-2)"></path>
            </g>
            <path d="M41.4902,63.2879 C29.1942,63.2879 19.2252,73.2529 19.2252,85.5459 C19.2252,97.8389 29.1942,107.8039 41.4902,107.8039 C53.7872,107.8039 63.7552,97.8389 63.7552,85.5459 C63.7552,73.2529 53.7872,63.2879 41.4902,63.2879" id="Fill-4" fill="#6431B4"></path>
            <path d="M126.8496,80.6277 C117.0036,80.6277 109.0226,88.6067 109.0226,98.4507 C109.0226,108.2937 117.0036,116.2727 126.8496,116.2727 C136.6956,116.2727 144.6776,108.2937 144.6776,98.4507 C144.6776,88.6067 136.6956,80.6277 126.8496,80.6277" id="Fill-6" fill="#6431B4"></path>
            <path d="M101.6729,26.1961 C101.6729,14.3581 88.8529,4.7271 73.0959,4.7271 C57.3359,4.7271 44.5149,14.3581 44.5149,26.1961 C44.5149,31.4911 47.1499,36.5961 51.9339,40.5691 C52.5259,41.0581 52.7449,41.8631 52.4879,42.5801 L50.6029,46.6301 L49.3999,49.2141 L51.9539,47.9251 L57.9089,44.9191 C58.1109,44.8531 58.3189,44.8201 58.5259,44.8201 C58.7719,44.8201 59.0079,44.8661 59.2299,44.9591 C63.4459,46.7291 68.2409,47.6651 73.0959,47.6651 C88.8529,47.6651 101.6729,38.0341 101.6729,26.1961" id="Fill-8" fill="#FFFFFF"></path>
            <path d="M114.0117,58.532 C113.7517,57.802 113.9757,56.983 114.5737,56.486 C119.4177,52.437 122.0827,47.24 122.0827,41.849 C122.0827,33.957 116.4077,26.653 107.2727,22.786 L105.6397,22.095 L105.8847,23.85 C106.0137,24.771 106.0777,25.692 106.0777,26.588 C106.0777,40.695 91.4337,52.171 73.4337,52.171 C72.1717,52.171 70.9077,52.113 69.6737,51.997 L67.2347,51.769 L68.8107,53.645 C74.1097,59.947 83.2117,63.71 93.1617,63.71 C98.0757,63.71 102.9287,62.757 107.1937,60.953 C107.4207,60.858 107.6637,60.808 107.9127,60.808 C108.1147,60.808 108.3187,60.843 108.5187,60.91 L108.6357,60.971 L115.1187,65.521 L118.1257,67.631 L116.6127,64.284 L114.0117,58.532 Z" id="Fill-10" fill="#67E5DF"></path>
            <path d="M59.4795,29.2293 C58.3765,29.2293 57.4795,28.3323 57.4795,27.2303 C57.4795,26.1283 58.3765,25.2313 59.4795,25.2313 C60.5825,25.2313 61.4775008,26.1283 61.4775008,27.2303 C61.4785,28.3323 60.5825,29.2293 59.4795,29.2293 M59.4795,22.2863 C56.7515,22.2863 54.5335,24.5043 54.5335,27.2313 C54.5335,29.9583 56.7515,32.1763 59.4795,32.1763 C62.2065,32.1763 64.4245,29.9583 64.4245,27.2313 C64.4245,24.5043 62.2065,22.2863 59.4795,22.2863" id="Fill-12" fill="#0FB5B1"></path>
            <path d="M72.8867,29.2293 C71.7837,29.2293 70.8867,28.3323 70.8867,27.2303 C70.8867,26.1283 71.7837,25.2313 72.8867,25.2313 C73.9897,25.2313 74.8847008,26.1283 74.8847008,27.2303 C74.8857,28.3323 73.9897,29.2293 72.8867,29.2293 M72.8867,22.2863 C70.1587,22.2863 67.9407,24.5043 67.9407,27.2313 C67.9407,29.9583 70.1587,32.1763 72.8867,32.1763 C75.6137,32.1763 77.8317,29.9583 77.8317,27.2313 C77.8317,24.5043 75.6137,22.2863 72.8867,22.2863" id="Fill-14" fill="#0FB5B1"></path>
            <path d="M86.2939,29.2293 C85.1909,29.2293 84.2939,28.3323 84.2939,27.2303 C84.2939,26.1283 85.1909,25.2313 86.2939,25.2313 C87.3969,25.2313 88.2919033,26.1283 88.2919033,27.2303 C88.2939,28.3323 87.3969,29.2293 86.2939,29.2293 M86.2939,22.2863 C83.5659,22.2863 81.3479,24.5043 81.3479,27.2313 C81.3479,29.9583 83.5659,32.1763 86.2939,32.1763 C89.0219,32.1763 91.2389,29.9583 91.2389,27.2313 C91.2389,24.5043 89.0219,22.2863 86.2939,22.2863" id="Fill-16" fill="#0FB5B1"></path>
            <g id="Group-20" transform="translate(0.000000, 107.803500)">
                <mask id="mask-4" fill="white">
                    <use xlink:href="#path-3"></use>
                </mask>
                <g id="Clip-19"></g>
                <path d="M59.9668,0.456 L58.9048,-2.13162821e-14 L58.1458,0.911 L56.6268,2.581 C48.1748,10.963 34.5258,10.909 26.1398,2.459 C25.6508,1.966 25.1858,1.449 24.7458,0.911 L23.9868,-2.13162821e-14 L22.9238,0.456 C9.1698,5.765 0.0718,18.955 -0.0002,33.694 L-0.0002,42.497 L82.8908,42.497 L82.8908,33.694 C82.8188,18.955 73.7208,5.765 59.9668,0.456" id="Fill-18" fill="#6431B4" mask="url(#mask-4)"></path>
            </g>
            <g id="Group-23" transform="translate(93.627500, 116.272500)">
                <mask id="mask-6" fill="white">
                    <use xlink:href="#path-5"></use>
                </mask>
                <g id="Clip-22"></g>
                <path d="M48.017,0.365 L47.166,2.13162821e-14 L46.558,0.729 L45.342,2.066 C38.575,8.779 27.645,8.735 20.931,1.969 C20.539,1.574 20.166,1.16 19.815,0.729 L19.206,2.13162821e-14 L18.356,0.365 C7.342,4.615 0.058,15.177 0,26.979 L0,34.028 L66.372,34.028 L66.372,26.979 C66.314,15.177 59.03,4.615 48.017,0.365" id="Fill-21" fill="#6431B4" mask="url(#mask-6)"></path>
            </g>
            <path d="M41.4902,68.3128 C50.9952,68.3128 58.7282,76.0438 58.7282,85.5458 C58.7282,95.0478 50.9952,102.7788 41.4902,102.7788 C31.9852,102.7788 24.2522,95.0478 24.2522,85.5458 C24.2522,76.0438 31.9852,68.3128 41.4902,68.3128" id="Fill-24" fill="#CEBBFC"></path>
            <path d="M60.2578,113.8464 L60.1738,113.9304 C59.8388,114.2634 59.4928,114.5884 59.1418,114.9024 C54.2588,119.2634 47.9678,121.6644 41.4268,121.6644 C34.3498,121.6644 27.5688,118.8384 22.5958,113.8644 C11.9438,118.9284 5.1018,129.6314 5.0468,141.5064 L5.0468,145.2544 L77.8438,145.2544 L77.8438,141.4974 C77.7888,129.6174 70.9308,118.9034 60.2578,113.8464" id="Fill-26" fill="#CEBBFC"></path>
        </g>
    </g>
</svg>