<?xml version="1.0" encoding="UTF-8"?>
<svg width="160px" height="160px" viewBox="0 0 160 160" version="1.1" xmlns="http://www.w3.org/2000/svg" xmlns:xlink="http://www.w3.org/1999/xlink">
    <title>product-reviews</title>
    <defs>
        <polygon id="path-1" points="1.77635684e-15 0 92.147 0 92.147 67.9867 1.77635684e-15 67.9867"></polygon>
        <polygon id="path-3" points="0 138.7 160 138.7 160 0 0 0"></polygon>
    </defs>
    <g id="product-reviews" stroke="none" stroke-width="1" fill="none" fill-rule="evenodd">
        <g id="Group-32" transform="translate(0.000000, 11.000000)">
            <path d="M36.5942,51.6322 L87.8952,51.6322 C89.5682,51.6322 90.6842,50.5172 90.6842,48.8452 L90.6842,4.2502 C90.6842,2.5782 89.5682,1.4632 87.8952,1.4632 L4.2522,1.4632 C2.5792,1.4632 1.4642,2.5782 1.4642,4.2502 L1.4642,48.8452 C1.4642,50.5172 2.5792,51.6322 4.2522,51.6322 L23.7692,51.6322 L23.7692,64.4532 L36.5942,51.6322 Z" id="Fill-1" fill="#CEBBFC"></path>
            <g id="Group-5" transform="translate(0.000400, 0.000000)">
                <mask id="mask-2" fill="white">
                    <use xlink:href="#path-1"></use>
                </mask>
                <g id="Clip-4"></g>
                <path d="M4.252,2.9267 C3.386,2.9267 2.927,3.3847 2.927,4.2507 L2.927,48.8447 C2.927,49.7117 3.386,50.1687 4.252,50.1687 L25.232,50.1687 L25.232,60.9207 L35.987,50.1687 L87.896,50.1687 C88.762,50.1687 89.219,49.7117 89.219,48.8447 L89.219,4.2507 C89.219,3.3847 88.762,2.9267 87.896,2.9267 L4.252,2.9267 Z M22.305,67.9867 L22.305,53.0957 L4.252,53.0957 C1.788,53.0957 1.77635684e-15,51.3077 1.77635684e-15,48.8447 L1.77635684e-15,4.2507 C1.77635684e-15,1.7877 1.788,-0.0003 4.252,-0.0003 L87.896,-0.0003 C90.358,-0.0003 92.147,1.7877 92.147,4.2507 L92.147,48.8447 C92.147,51.3077 90.358,53.0957 87.896,53.0957 L37.199,53.0957 L22.305,67.9867 Z" id="Fill-3" fill="#6431B4" mask="url(#mask-2)"></path>
            </g>
            <path d="M29.5649,123.974 L34.3419,119.915 L28.0729,119.915 L23.1329,119.915 C23.1289,119.91 23.1279,119.904 23.1239,119.898 L20.7299,114.677 L18.6349,110.107 L16.5399,114.677 L14.1379,119.915 L9.1969,119.915 L2.9269,119.915 L7.7049,123.974 L11.9959,127.62 L10.2869,133.17 L8.5849,138.7 L13.6239,135.853 L18.6349,133.021 L23.6459,135.853 L28.6849,138.7 L26.9829,133.17 L25.2749,127.62 C25.2749,127.62 25.2759,127.619 25.2769,127.618 L29.5649,123.974 Z" id="Fill-6" fill="#0FB5B1"></path>
            <path d="M140.8696,32.122 C142.4096,32.122 143.6576,33.37 143.6576,34.91 C143.6576,36.449 142.4096,37.697 140.8696,37.697 C139.3296,37.697 138.0816,36.449 138.0816,34.91 C138.0816,33.37 139.3296,32.122 140.8696,32.122" id="Fill-8" fill="#6431B4"></path>
            <path d="M71.1665,76.7172 C66.4275,76.7172 62.8025,73.0932 62.8025,68.3552 L62.8025,57.2072 L38.8245,57.2072 L32.1335,63.8962 L32.1335,82.2912 C32.1335,83.9642 33.2485,85.0782 34.9215,85.0782 L54.4375,85.0782 L54.4375,97.9002 L67.2635,85.0782 L128.6025,85.0782 L120.2375,76.7172 L71.1665,76.7172 Z" id="Fill-10" fill="#6431B4"></path>
            <path d="M152.0219,65.5683 L129.7169,65.5683 L129.7169,57.2073 C129.7169,52.4683 133.3409,48.8453 138.0819,48.8453 L143.6579,48.8453 C148.3969,48.8453 152.0219,52.4683 152.0219,57.2073 L152.0219,65.5683 Z M109.3969,43.2713 L124.1409,43.2713 L124.1409,37.6973 L109.3969,37.6973 L109.3969,43.2713 Z M102.0059,54.4203 L124.1409,54.4203 L124.1409,48.8453 L102.0059,48.8453 L102.0059,54.4203 Z M140.8699,26.5473 C145.6089,26.5473 149.2339,30.1713 149.2339,34.9093 C149.2339,39.6473 145.6089,43.2713 140.8699,43.2713 C136.1289,43.2713 132.5049,39.6473 132.5049,34.9093 C132.5049,30.1713 136.1289,26.5473 140.8699,26.5473 L140.8699,26.5473 Z M154.8099,20.9733 L96.2599,20.9733 L96.2599,48.8453 C96.2599,53.5833 92.6349,57.2073 87.8949,57.2073 L68.3779,57.2073 L68.3779,68.3553 C68.3779,70.0273 69.4939,71.1433 71.1669,71.1433 L122.4679,71.1433 L135.2929,83.9643 L135.2929,71.1433 L154.8099,71.1433 C156.4829,71.1433 157.5979,70.0273 157.5979,68.3553 L157.5979,23.7603 C157.5979,22.0883 156.4829,20.9733 154.8099,20.9733 L154.8099,20.9733 Z" id="Fill-12" fill="#6431B4"></path>
            <path d="M143.6577,54.4198 L138.0817,54.4198 C136.4087,54.4198 135.2937,55.5348 135.2937,57.2068 L135.2937,59.9938 L146.4457,59.9938 L146.4457,57.2068 C146.4457,55.5348 145.3307,54.4198 143.6577,54.4198" id="Fill-14" fill="#6431B4"></path>
            <mask id="mask-4" fill="white">
                <use xlink:href="#path-3"></use>
            </mask>
            <g id="Clip-17"></g>
            <polygon id="Fill-16" fill="#6431B4" mask="url(#mask-4)" points="38.125 23.76 67.638 23.76 67.638 18.186 38.125 18.186"></polygon>
            <polygon id="Fill-18" fill="#6431B4" mask="url(#mask-4)" points="38.125 34.91 80.367 34.91 80.367 29.335 38.125 29.335"></polygon>
            <path d="M18.1928,7.0375 C22.9328,7.0375 26.5568,10.6615 26.5568,15.3985 C26.5568,20.1375 22.9328,23.7605 18.1928,23.7605 C13.4528,23.7605 9.8288,20.1375 9.8288,15.3985 C9.8288,10.6615 13.4528,7.0375 18.1928,7.0375" id="Fill-19" fill="#6431B4" mask="url(#mask-4)"></path>
            <path d="M18.1928,12.6117 C19.7328,12.6117 20.9808,13.8597 20.9808,15.3987 C20.9808,16.9387 19.7328,18.1867 18.1928,18.1867 C16.6528,18.1867 15.4048,16.9387 15.4048,15.3987 C15.4048,13.8597 16.6528,12.6117 18.1928,12.6117" id="Fill-20" fill="#CEBBFC" mask="url(#mask-4)"></path>
            <path d="M7.0405,46.058 L7.0405,37.697 C7.0405,32.958 10.6645,29.335 15.4045,29.335 L20.9805,29.335 C25.7215,29.335 29.3455,32.958 29.3455,37.697 L29.3455,46.058 L7.0405,46.058 Z" id="Fill-21" fill="#6431B4" mask="url(#mask-4)"></path>
            <path d="M20.9809,34.9096 L15.4049,34.9096 C13.7319,34.9096 12.6169,36.0246 12.6169,37.6966 L12.6169,40.4836 L23.7689,40.4836 L23.7689,37.6966 C23.7689,36.0246 22.6539,34.9096 20.9809,34.9096" id="Fill-22" fill="#CEBBFC" mask="url(#mask-4)"></path>
            <path d="M22.9507,125.7738 L26.7037,122.5848 L22.3887,122.5848 C21.6377,122.5848 21.0747,122.2098 20.6987,121.4588 L18.6357,116.9568 L16.5707,121.4588 C16.3837,122.2098 15.6327,122.5848 14.8817,122.5848 L10.5657,122.5848 L14.3187,125.7738 C14.8817,126.1488 15.0697,126.8988 14.8817,127.6498 L13.3807,132.5268 L17.6967,130.0878 C17.9777,129.9008 18.3057,129.8068 18.6357,129.8068 C18.9637,129.8068 19.2917,129.9008 19.5727,130.0878 L23.8887,132.5268 L22.3887,127.6498 C22.2007,127.0868 22.3887,126.3358 22.9507,125.7738" id="Fill-23" fill="#67E5DF" mask="url(#mask-4)"></path>
            <path d="M60.979,123.974 L65.756,119.915 L59.487,119.915 L54.547,119.915 C54.544,119.91 54.542,119.904 54.539,119.898 L52.144,114.677 L50.049,110.107 L47.955,114.677 L45.552,119.915 L40.612,119.915 L34.342,119.915 L39.12,123.974 L43.41,127.62 L41.701,133.17 L39.999,138.7 L45.038,135.853 L50.049,133.021 L55.061,135.853 L60.1,138.7 L58.397,133.17 L56.689,127.62 C56.69,127.62 56.69,127.619 56.691,127.618 L60.979,123.974 Z" id="Fill-24" fill="#0FB5B1" mask="url(#mask-4)"></path>
            <path d="M54.3657,125.7738 L58.1187,122.5848 L53.8027,122.5848 C53.0517,122.5848 52.4887,122.2098 52.1137,121.4588 L50.0497,116.9568 L47.9847,121.4588 C47.7977,122.2098 47.0467,122.5848 46.2967,122.5848 L41.9797,122.5848 L45.7327,125.7738 C46.2967,126.1488 46.4837,126.8988 46.2967,127.6498 L44.7947,132.5268 L49.1107,130.0878 C49.3917,129.9008 49.7207,129.8068 50.0497,129.8068 C50.3777,129.8068 50.7067,129.9008 50.9877,130.0878 L55.3027,132.5268 L53.8027,127.6498 C53.6147,127.0868 53.8027,126.3358 54.3657,125.7738" id="Fill-25" fill="#67E5DF" mask="url(#mask-4)"></path>
            <path d="M92.394,123.974 L97.171,119.915 L90.901,119.915 L85.962,119.915 C85.958,119.91 85.956,119.904 85.953,119.898 L83.559,114.677 L81.464,110.107 L79.369,114.677 L76.967,119.915 L72.026,119.915 L65.756,119.915 L70.534,123.974 L74.824,127.62 L73.116,133.17 L71.414,138.7 L76.453,135.853 L81.464,133.021 L86.475,135.853 L91.514,138.7 L89.812,133.17 L88.104,127.62 C88.104,127.62 88.105,127.619 88.106,127.618 L92.394,123.974 Z" id="Fill-26" fill="#0FB5B1" mask="url(#mask-4)"></path>
            <path d="M85.7798,125.7738 L89.5328,122.5848 L85.2168,122.5848 C84.4668,122.5848 83.9028,122.2098 83.5278,121.4588 L81.4648,116.9568 L79.3998,121.4588 C79.2118,122.2098 78.4618,122.5848 77.7108,122.5848 L73.3938,122.5848 L77.1478,125.7738 C77.7108,126.1488 77.8978,126.8988 77.7108,127.6498 L76.2098,132.5268 L80.5258,130.0878 C80.8068,129.9008 81.1348,129.8068 81.4648,129.8068 C81.7928,129.8068 82.1208,129.9008 82.4018,130.0878 L86.7178,132.5268 L85.2168,127.6498 C85.0288,127.0868 85.2168,126.3358 85.7798,125.7738" id="Fill-27" fill="#67E5DF" mask="url(#mask-4)"></path>
            <path d="M123.8081,123.974 L128.5851,119.915 L122.3161,119.915 L117.3761,119.915 C117.3731,119.91 117.3711,119.904 117.3681,119.898 L114.9731,114.677 L112.8781,110.107 L110.7841,114.677 L108.3811,119.915 L103.4411,119.915 L97.1711,119.915 L101.9481,123.974 L106.2391,127.62 L104.5301,133.17 L102.8281,138.7 L107.8671,135.853 L112.8781,133.021 L117.8901,135.853 L122.9281,138.7 L121.2261,133.17 L119.5181,127.62 C119.5191,127.62 119.5191,127.619 119.5201,127.618 L123.8081,123.974 Z" id="Fill-28" fill="#0FB5B1" mask="url(#mask-4)"></path>
            <path d="M117.1938,125.7738 L120.9478,122.5848 L116.6318,122.5848 C115.8808,122.5848 115.3178,122.2098 114.9428,121.4588 L112.8788,116.9568 L110.8138,121.4588 C110.6268,122.2098 109.8758,122.5848 109.1258,122.5848 L104.8088,122.5848 L108.5618,125.7738 C109.1258,126.1488 109.3128,126.8988 109.1258,127.6498 L107.6238,132.5268 L111.9398,130.0878 C112.2208,129.9008 112.5498,129.8068 112.8788,129.8068 C113.2068,129.8068 113.5358,129.9008 113.8168,130.0878 L118.1318,132.5268 L116.6318,127.6498 C116.4438,127.0868 116.6318,126.3358 117.1938,125.7738" id="Fill-29" fill="#67E5DF" mask="url(#mask-4)"></path>
            <path d="M155.2231,123.974 L160.0001,119.915 L153.7301,119.915 L148.7901,119.915 C148.7871,119.91 148.7851,119.904 148.7821,119.898 L146.3881,114.677 L144.2921,110.107 L142.1981,114.677 L139.7961,119.915 L134.8551,119.915 L128.5851,119.915 L133.3631,123.974 L137.6531,127.62 L135.9451,133.17 L134.2431,138.7 L139.2811,135.853 L144.2921,133.021 L149.3041,135.853 L154.3431,138.7 L152.6411,133.17 L150.9331,127.62 C150.9331,127.62 150.9341,127.619 150.9351,127.618 L155.2231,123.974 Z" id="Fill-30" fill="#0FB5B1" mask="url(#mask-4)"></path>
            <path d="M148.6089,125.7738 L152.3619,122.5848 L148.0459,122.5848 C147.2959,122.5848 146.7319,122.2098 146.3569,121.4588 L144.2929,116.9568 L142.2279,121.4588 C142.0409,122.2098 141.2909,122.5848 140.5399,122.5848 L136.2229,122.5848 L139.9769,125.7738 C140.5399,126.1488 140.7269,126.8988 140.5399,127.6498 L139.0389,132.5268 L143.3549,130.0878 C143.6359,129.9008 143.9639,129.8068 144.2929,129.8068 C144.6219,129.8068 144.9499,129.9008 145.2309,130.0878 L149.5469,132.5268 L148.0459,127.6498 C147.8579,127.0868 148.0459,126.3358 148.6089,125.7738" id="Fill-31" fill="#67E5DF" mask="url(#mask-4)"></path>
        </g>
    </g>
</svg>