<?xml version="1.0" encoding="UTF-8"?>
<svg width="160px" height="160px" viewBox="0 0 160 160" version="1.1" xmlns="http://www.w3.org/2000/svg" xmlns:xlink="http://www.w3.org/1999/xlink">
    <title>product-digitalcatalog</title>
    <defs>
        <polygon id="path-1" points="0 1.42108547e-14 29.984 1.42108547e-14 29.984 29.9954 0 29.9954"></polygon>
        <polygon id="path-3" points="0 1.42108547e-14 29.983 1.42108547e-14 29.983 29.9954 0 29.9954"></polygon>
        <polygon id="path-5" points="0 0 125.9336 0 125.9336 95.985 0 95.985"></polygon>
    </defs>
    <g id="product-digitalcatalog" stroke="none" stroke-width="1" fill="none" fill-rule="evenodd">
        <g id="Group-22" transform="translate(3.000000, 0.000000)">
            <path d="M137.419,18.991 C137.678,12.868 136.35,7.685 133.017,4.49 C129.658,1.271 124.83,0 120.515,0 C112.085,0 104.816,6.856 104.816,15.283 L104.816,46.018 L109.744,46.018 L109.744,15.283 C109.744,9.574 114.803,4.716 120.515,4.716 C122.616,4.716 126.494,4.919 129.521,7.984 C131.829,10.323 132.766,14.2 132.539,18.978 C122.882,20.174 115.376,28.461 115.376,38.493 L115.376,57.089 C115.376,67.94 124.151,76.768 134.939,76.768 C145.725,76.768 154.5,67.939 154.5,57.087 L154.5,38.493 C154.5,28.49 147.036,20.224 137.419,18.991" id="Fill-1" fill="#0FB5B1"></path>
            <g id="Group-5" transform="translate(95.949400, 130.004600)">
                <mask id="mask-2" fill="white">
                    <use xlink:href="#path-1"></use>
                </mask>
                <g id="Clip-4"></g>
                <path d="M14.992,1.42108547e-14 C6.713,1.42108547e-14 0,6.715 0,14.998 C0,23.281 6.713,29.996 14.992,29.996 C23.272,29.996 29.984,23.281 29.984,14.998 C29.984,6.715 23.272,1.42108547e-14 14.992,1.42108547e-14 M14.992,5.532 C20.209,5.532 24.453,9.778 24.453,14.998 C24.453,20.217 20.209,24.463 14.992,24.463 C9.776,24.463 5.532,20.217 5.532,14.998 C5.532,9.778 9.776,5.532 14.992,5.532" id="Fill-3" fill="#5334B7" mask="url(#mask-2)"></path>
            </g>
            <g id="Group-8" transform="translate(35.981700, 130.004600)">
                <mask id="mask-4" fill="white">
                    <use xlink:href="#path-3"></use>
                </mask>
                <g id="Clip-7"></g>
                <path d="M14.991,1.42108547e-14 C6.712,1.42108547e-14 0,6.715 0,14.998 C0,23.281 6.712,29.996 14.991,29.996 C23.271,29.996 29.983,23.281 29.983,14.998 C29.983,6.715 23.271,1.42108547e-14 14.991,1.42108547e-14 M14.991,5.532 C20.208,5.532 24.452,9.778 24.452,14.998 C24.452,20.217 20.208,24.463 14.991,24.463 C9.775,24.463 5.531,20.217 5.531,14.998 C5.531,9.778 9.775,5.532 14.991,5.532" id="Fill-6" fill="#5334B7" mask="url(#mask-4)"></path>
            </g>
            <g id="Group-11" transform="translate(0.000000, 28.020600)">
                <mask id="mask-6" fill="white">
                    <use xlink:href="#path-5"></use>
                </mask>
                <g id="Clip-10"></g>
                <path d="M122.9356,95.985 L53.7256,95.985 C43.7526,95.985 35.0996,88.888 33.1446,79.11 L18.5306,5.999 L2.9976,5.999 C1.3436,5.999 -0.0004,4.655 -0.0004,2.999 C-0.0004,1.343 1.3436,0 2.9976,0 L20.9896,0 C22.4156,0 23.6456,1.007 23.9276,2.411 L39.0276,77.928 C40.4246,84.917 46.6016,89.986 53.7256,89.986 L122.9356,89.986 C124.5906,89.986 125.9336,91.33 125.9336,92.985 C125.9336,94.641 124.5906,95.985 122.9356,95.985" id="Fill-9" fill="#6431B4" mask="url(#mask-6)"></path>
            </g>
            <path d="M120.5147,36.03 C121.5467,29.907 126.4027,25.009 132.4747,23.962 L132.4747,36.03 L120.5147,36.03 Z" id="Fill-12" fill="#FFFFFF"></path>
            <path d="M149.3614,36.032 L137.4024,36.032 L137.4024,23.962 C143.4734,25.01 148.3294,29.908 149.3614,36.032" id="Fill-14" fill="#FFFFFF"></path>
            <path d="M149.5723,40.9617 L149.5723,57.0887 C149.5723,65.2217 143.0083,71.8377 134.9383,71.8377 C126.8693,71.8377 120.3033,65.2217 120.3033,57.0887 L120.3033,40.9617 L149.5723,40.9617 Z" id="Fill-16" fill="#67E5DF"></path>
            <path d="M109.7451,57.0891 L109.7451,46.0181 L24.7811,46.0181 C23.9061,46.0421 23.0851,46.4561 22.5391,47.1391 C21.9871,47.8171 21.7591,48.7051 21.9271,49.5691 L30.9221,97.5621 C31.1861,98.9841 32.4221,100.0091 33.8671,100.0091 L41.3501,100.0091 L116.2271,100.0091 L123.7111,100.0091 C125.1561,100.0091 126.3911,98.9841 126.6551,97.5621 L129.6041,81.8251 C118.2661,79.3601 109.7451,69.2081 109.7451,57.0891" id="Fill-18" fill="#5334B7"></path>
            <path d="M109.7451,57.0891 L109.7451,51.5501 L27.9261,51.5501 L35.9711,94.4761 L41.3501,94.4761 L116.2271,94.4761 L121.6061,94.4761 L124.3131,80.0321 C115.7181,75.9981 109.7451,67.2341 109.7451,57.0891" id="Fill-20" fill="#CEBBFC"></path>
        </g>
    </g>
</svg>