<?xml version="1.0" encoding="UTF-8"?>
<svg width="160px" height="160px" viewBox="0 0 160 160" version="1.1" xmlns="http://www.w3.org/2000/svg" xmlns:xlink="http://www.w3.org/1999/xlink">
    <title>product-social</title>
    <defs>
        <polygon id="path-1" points="0 0 42.7487 0 42.7487 42.74 0 42.74"></polygon>
        <polygon id="path-3" points="0 0 100.930745 0 100.930745 105.359422 0 105.359422"></polygon>
    </defs>
    <g id="product-social" stroke="none" stroke-width="1" fill="none" fill-rule="evenodd">
        <g id="Group-35" transform="translate(0.000000, 3.000000)">
            <path d="M158.509015,115.4332 C158.509015,126.4122 149.607015,135.3122 138.626015,135.3122 C127.645015,135.3122 118.743015,126.4122 118.743015,115.4332 C118.743015,104.4542 127.645015,95.5542 138.626015,95.5542 C149.607015,95.5542 158.509015,104.4542 158.509015,115.4332" id="Fill-1" fill="#6431B4"></path>
            <path d="M150.168215,113.2398 L138.866215,113.2398 L138.866215,117.7058 L145.500215,117.7058 C145.366215,118.8158 144.645215,120.4878 143.039215,121.6108 C142.022215,122.3198 140.658215,122.8148 138.866215,122.8148 C135.684215,122.8148 132.981215,120.7148 132.019215,117.8128 C131.765215,117.0648 131.617215,116.2618 131.617215,115.4328 C131.617215,114.6038 131.765215,113.8018 132.005215,113.0528 C132.981215,110.1508 135.684215,108.0518 138.866215,108.0518 C141.127215,108.0518 142.651215,109.0278 143.521215,109.8438 L146.918215,106.5268 C144.832215,104.5878 142.116215,103.3978 138.866215,103.3978 C134.158215,103.3978 130.093215,106.0988 128.113215,110.0308 C127.297215,111.6618 126.829215,113.4938 126.829215,115.4328 C126.829215,117.3718 127.297215,119.2038 128.113215,120.8358 C130.093215,124.7668 134.158215,127.4678 138.866215,127.4678 C142.116215,127.4678 144.845215,126.3978 146.838215,124.5528 C149.111215,122.4528 150.422215,119.3648 150.422215,115.6998 C150.422215,114.7108 150.342215,113.9888 150.168215,113.2398" id="Fill-3" fill="#FFFFFF"></path>
            <path d="M158.509015,55.9405 C158.509015,66.9195 149.607015,75.8195 138.626015,75.8195 C127.645015,75.8195 118.743015,66.9195 118.743015,55.9405 C118.743015,44.9615 127.645015,36.0615 138.626015,36.0615 C149.607015,36.0615 158.509015,44.9615 158.509015,55.9405" id="Fill-5" fill="#CEBBFC"></path>
            <g id="Group-9" transform="translate(117.251215, 34.570300)">
                <mask id="mask-2" fill="white">
                    <use xlink:href="#path-1"></use>
                </mask>
                <g id="Clip-8"></g>
                <path d="M21.375,2.982 C11.233,2.982 2.982,11.231 2.982,21.37 C2.982,31.51 11.233,39.758 21.375,39.758 C31.516,39.758 39.767,31.51 39.767,21.37 C39.767,11.231 31.516,2.982 21.375,2.982 M21.375,42.74 C9.589,42.74 0,33.153 0,21.37 C0,9.587 9.589,0 21.375,0 C33.161,0 42.749,9.587 42.749,21.37 C42.749,33.153 33.161,42.74 21.375,42.74" id="Fill-7" fill="#6431B4" mask="url(#mask-2)"></path>
            </g>
            <path d="M143.812715,67.9801 L133.438715,67.9801 C129.658715,67.9801 126.583715,64.9061 126.583715,61.1261 L126.583715,50.7541 C126.583715,46.9761 129.658715,43.9011 133.438715,43.9011 L143.812715,43.9011 C147.592715,43.9011 150.666715,46.9761 150.666715,50.7541 L150.666715,61.1261 C150.666715,64.9061 147.592715,67.9801 143.812715,67.9801" id="Fill-10" fill="#6431B4"></path>
            <path d="M109.024615,19.879 C109.024615,30.858 100.122615,39.758 89.1416145,39.758 C78.1606145,39.758 69.2586145,30.858 69.2586145,19.879 C69.2586145,8.9 78.1606145,0 89.1416145,0 C100.122615,0 109.024615,8.9 109.024615,19.879" id="Fill-12" fill="#6431B4"></path>
            <path d="M91.2228145,31.8282 L91.2228145,20.9272 L95.3388145,20.9272 L96.0338145,16.6232 L91.2228145,16.6232 L91.2228145,13.6892 C91.2228145,12.7792 92.0708145,12.0352 93.1068145,12.0352 L96.2178145,12.0352 L96.2178145,8.0722 L92.3088145,7.9342 C88.6588145,7.8062 86.1818145,10.2232 86.1818145,13.0702 L86.1818145,16.6232 L82.0658145,16.6232 L82.0658145,20.9272 L86.1818145,20.9272 L86.1818145,31.8282 L91.2228145,31.8282 Z" id="Fill-14" fill="#FFFFFF"></path>
            <g id="Group-18" transform="translate(0.000000, 47.940378)">
                <mask id="mask-4" fill="white">
                    <use xlink:href="#path-3"></use>
                </mask>
                <g id="Clip-17"></g>
                <path d="M17.3957145,89.9205218 C19.0027145,89.9205218 20.6187145,89.6845218 22.1987145,89.2275218 L29.3697145,101.186522 C31.8487145,105.243522 37.2317145,106.614522 41.3817145,104.082522 C45.4907145,101.568522 46.7897145,96.1825218 44.2887145,92.0905218 L37.4277145,80.6495218 L39.5777145,79.3355218 C39.6107145,79.3145218 39.6287145,79.2795218 39.6617145,79.2575218 C54.1007145,74.9465218 68.6837145,72.8455218 84.1627145,72.8465218 C86.0507145,74.9105218 88.6777145,75.9735218 91.2947145,75.9735218 C95.5837145,75.9735218 99.5817145,73.0605218 100.660715,68.5695218 C101.260715,66.0625218 100.853715,63.4735218 99.5107145,61.2815218 L89.8797145,45.5315218 C95.1017145,40.7255218 96.3437145,32.8545218 92.5337145,26.6235218 C88.7227145,20.3935218 81.1497145,17.9135218 74.4907145,20.3685218 L64.8587145,4.61952177 C63.4997145,2.39552177 61.3677145,0.851521772 58.9077145,0.285521772 C53.8397145,-0.989478228 48.5017145,2.11652177 47.2307145,7.39052177 C46.7737145,9.28152177 46.8997145,11.2225218 47.5667145,13.0085218 C40.5097145,26.7855218 31.9977145,38.8055218 21.5777145,49.6905218 C21.5437145,49.7085218 21.5037145,49.7085218 21.4717145,49.7285218 L8.32071454,57.7685218 C0.0747145406,62.8085218 -2.42228546,73.4865218 2.54971454,81.6195218 C5.82071454,86.9665218 11.5417145,89.9205218 17.3957145,89.9205218" id="Fill-16" fill="#0FB5B1" mask="url(#mask-4)"></path>
            </g>
            <path d="M88.3234145,77.1388 C90.7044145,81.0338 90.1544145,85.8898 87.2384145,89.1528 L77.1334145,72.6288 C81.3604145,71.5218 85.9414145,73.2438 88.3234145,77.1388" id="Fill-19" fill="#FFFFFF"></path>
            <path d="M40.0666145,142.5875 C41.1596145,144.3755 40.5936145,146.7195 38.8076145,147.8125 C36.9906145,148.9225 34.6366145,148.2805 33.5906145,146.5705 L26.7296145,135.1295 L33.2166145,131.1645 L40.0666145,142.5875 Z" id="Fill-21" fill="#FFFFFF"></path>
            <path d="M54.1594145,53.5685 C55.2324145,52.9105 56.4904145,52.7075 57.7514145,53.0235 C58.9574145,53.3015 59.9864145,54.0505 60.6494145,55.1335 C66.1314145,64.0975 78.8274145,84.8585 84.5384145,94.1965 L95.3014145,111.7955 C95.9574145,112.8665 96.1554145,114.1315 95.8604145,115.3595 C95.2534145,117.8965 92.7114145,119.4595 90.1624145,118.8415 C88.9364145,118.5455 87.9004145,117.7915 87.2454145,116.7195 L52.5944145,60.0585 C51.2304145,57.8295 51.9214145,54.9375 54.1594145,53.5685" id="Fill-23" fill="#67E5DF"></path>
            <path d="M50.4787145,66.0597 L80.9397145,115.8667 C66.5467145,116.1337 52.8747145,118.1967 39.3297145,122.1407 L25.9307145,100.2317 C35.6137145,89.9747 43.6807145,78.7467 50.4787145,66.0597" id="Fill-25" fill="#67E5DF"></path>
            <path d="M10.8937145,109.9181 L21.9407145,103.1651 L34.8977145,124.3521 L23.8527145,131.1051 C18.0047145,134.6831 10.3357145,132.8331 6.75971454,126.9851 C3.17671454,121.1251 5.03071454,113.5051 10.8937145,109.9181" id="Fill-27" fill="#67E5DF"></path>
            <path d="M133.438715,45.9649 C130.796715,45.9649 128.648715,48.1129 128.648715,50.7549 L128.648715,61.1269 C128.648715,63.7679 130.796715,65.9159 133.438715,65.9159 L143.812715,65.9159 C146.454715,65.9159 148.603715,63.7679 148.603715,61.1269 L148.603715,50.7549 C148.603715,48.1129 146.454715,45.9649 143.812715,45.9649 L133.438715,45.9649 Z" id="Fill-29" fill="#FFFFFF"></path>
            <path d="M146.539315,49.4225 C146.539315,50.2405 145.875315,50.9045 145.057315,50.9045 C144.238315,50.9045 143.574315,50.2405 143.574315,49.4225 C143.574315,48.6045 144.238315,47.9405 145.057315,47.9405 C145.875315,47.9405 146.539315,48.6045 146.539315,49.4225" id="Fill-31" fill="#6431B4"></path>
            <path d="M138.626215,51.8395 C136.363215,51.8395 134.523215,53.6785 134.523215,55.9405 C134.523215,58.2025 136.363215,60.0425 138.626215,60.0425 C140.888215,60.0425 142.728215,58.2025 142.728215,55.9405 C142.728215,53.6785 140.888215,51.8395 138.626215,51.8395 M138.626215,62.1055 C135.226215,62.1055 132.459215,59.3395 132.459215,55.9405 C132.459215,52.5415 135.226215,49.7755 138.626215,49.7755 C142.025215,49.7755 144.792215,52.5415 144.792215,55.9405 C144.792215,59.3395 142.025215,62.1055 138.626215,62.1055" id="Fill-33" fill="#6431B4"></path>
        </g>
    </g>
</svg>