<?xml version="1.0" encoding="UTF-8"?>
<svg width="159px" height="33px" viewBox="0 0 159 33" version="1.1" xmlns="http://www.w3.org/2000/svg" xmlns:xlink="http://www.w3.org/1999/xlink">
    <!-- Generator: Sketch 52.5 (67469) - http://www.bohemiancoding.com/sketch -->
    <title>zceppadark</title>
    <desc>Created with Sketch.</desc>
    <defs>
        <path d="M36.8734458,958.789113 L54.5531713,958.789113 L44.1675402,977.000196 L53.9252029,977.000196 L53.9252029,981.927333 L35.2793722,981.927333 L45.7133085,963.716249 L36.8734458,963.716249 L36.8734458,958.789113 Z M82.1837805,963.426418 L77.3532544,966.083207 C76.4354544,965.117102 75.5659598,964.489134 74.6481598,964.102691 C73.7786651,963.716249 72.7159494,963.571334 71.5566231,963.571334 C69.3828864,963.571334 67.643897,964.199302 66.2913497,965.503544 C64.9388024,966.807786 64.2625287,968.450165 64.2625287,970.478986 C64.2625287,972.459502 64.8904971,974.053575 66.1947391,975.309512 C67.4989812,976.565449 69.1896653,977.193417 71.2667915,977.193417 C73.8752756,977.193417 75.8557913,976.323922 77.3049491,974.536628 L81.8939489,977.67647 C79.4303806,980.912922 75.9040966,982.506996 71.4117073,982.506996 C67.3540654,982.506996 64.1659182,981.299364 61.8472657,978.884101 C59.5286132,976.468838 58.4175922,973.667133 58.4175922,970.430681 C58.4175922,968.208639 58.9972553,966.131512 60.1082763,964.247607 C61.2192973,962.363702 62.7650656,960.866239 64.7938866,959.803523 C66.7744023,958.740807 69.0447495,958.20945 71.5083178,958.20945 C73.7786651,958.20945 75.8557913,958.644197 77.6913912,959.561997 C79.5269911,960.479797 81.0244542,961.735734 82.1837805,963.426418 Z M110.297442,971.976449 L91.6999169,971.976449 C91.9897484,973.618828 92.6660221,974.92307 93.8736536,975.889175 C95.0812851,976.85528 96.530443,977.338333 98.3177376,977.338333 C100.491474,977.338333 102.327074,976.565449 103.921148,975.067986 L108.799979,977.338333 C107.592348,979.077322 106.14319,980.333259 104.4042,981.154449 C102.713516,981.975638 100.684695,982.410385 98.3660429,982.410385 C94.7431483,982.410385 91.7965274,981.251059 89.5261801,978.980712 C87.2558329,976.710365 86.0965066,973.812049 86.0965066,970.382375 C86.0965066,966.856091 87.2558329,963.90947 89.5261801,961.590818 C91.7965274,959.272165 94.6465378,958.112839 98.0762113,958.112839 C101.699106,958.112839 104.694032,959.272165 106.964379,961.590818 C109.234727,963.90947 110.394053,967.001007 110.394053,970.817123 L110.297442,971.976449 Z M104.500811,967.435754 C104.114369,966.131512 103.341485,965.117102 102.230464,964.295912 C101.119443,963.474723 99.8152007,963.088281 98.3177376,963.088281 C96.723664,963.088281 95.2745062,963.523028 94.0668747,964.440828 C93.2939905,965.020491 92.5694116,965.986597 91.9414432,967.435754 L104.500811,967.435754 Z M119.958494,958.789113 L119.958494,961.349292 C121.02121,960.286576 122.132231,959.513692 123.339863,958.982334 C124.547494,958.450976 125.851736,958.20945 127.252589,958.20945 C130.247515,958.20945 132.807694,959.368776 134.933125,961.639123 C137.058557,963.90947 138.072967,966.856091 138.072967,970.382375 C138.072967,973.812049 136.961946,976.710365 134.78821,979.029017 C132.614473,981.34767 130.005989,982.506996 127.059368,982.506996 C125.706821,982.506996 124.499189,982.26547 123.339863,981.782417 C122.180536,981.299364 121.069515,980.52648 119.910189,979.463764 L119.910189,990.332448 L114.161863,990.332448 L114.161863,958.789113 L119.958494,958.789113 Z M126.044957,963.523028 C124.209357,963.523028 122.711894,964.150997 121.504263,965.406933 C120.296631,966.66287 119.716968,968.256944 119.716968,970.285765 C119.716968,972.314586 120.296631,974.00527 121.504263,975.261207 C122.711894,976.517143 124.209357,977.145112 126.044957,977.145112 C127.832252,977.145112 129.28141,976.517143 130.537347,975.212901 C131.793283,973.908659 132.372947,972.266281 132.372947,970.285765 C132.372947,968.305249 131.793283,966.66287 130.585652,965.406933 C129.37802,964.150997 127.880557,963.523028 126.044957,963.523028 Z M147.782325,958.789113 L147.782325,961.349292 C148.84504,960.286576 149.956061,959.513692 151.163693,958.982334 C152.371325,958.450976 153.675567,958.20945 155.076419,958.20945 C158.071345,958.20945 160.631524,959.368776 162.756956,961.639123 C164.882387,963.90947 165.896798,966.856091 165.896798,970.382375 C165.896798,973.812049 164.785777,976.710365 162.61204,979.029017 C160.438303,981.34767 157.829819,982.506996 154.883198,982.506996 C153.530651,982.506996 152.323019,982.26547 151.163693,981.782417 C150.004367,981.299364 148.893346,980.52648 147.734019,979.463764 L147.734019,990.332448 L141.985693,990.332448 L141.985693,958.789113 L147.782325,958.789113 Z M153.868788,963.523028 C152.033188,963.523028 150.535725,964.150997 149.328093,965.406933 C148.120462,966.66287 147.540798,968.256944 147.540798,970.285765 C147.540798,972.314586 148.120462,974.00527 149.328093,975.261207 C150.535725,976.517143 152.033188,977.145112 153.868788,977.145112 C155.656082,977.145112 157.10524,976.517143 158.361177,975.212901 C159.617114,973.908659 160.196777,972.266281 160.196777,970.285765 C160.196777,968.305249 159.617114,966.66287 158.409482,965.406933 C157.201851,964.150997 155.656082,963.523028 153.868788,963.523028 Z M187.923996,958.789113 L193.720628,958.789113 L193.720628,981.879027 L187.923996,981.879027 L187.923996,979.415459 C186.812975,980.478175 185.653649,981.251059 184.542628,981.734112 C183.383302,982.217164 182.17567,982.458691 180.823123,982.458691 C177.828197,982.458691 175.268018,981.299364 173.094281,978.980712 C170.920545,976.662059 169.809524,973.812049 169.809524,970.33407 C169.809524,966.759481 170.872239,963.861165 172.949366,961.590818 C175.074797,959.320471 177.634976,958.161144 180.629902,958.161144 C182.030755,958.161144 183.334997,958.402671 184.542628,958.934029 C185.75026,959.465386 186.861281,960.238271 187.923996,961.300986 L187.923996,958.789113 Z M181.837534,963.523028 C180.050239,963.523028 178.552776,964.150997 177.39345,965.406933 C176.185818,966.66287 175.606155,968.305249 175.606155,970.285765 C175.606155,972.266281 176.185818,973.908659 177.39345,975.212901 C178.601081,976.517143 180.098544,977.145112 181.837534,977.145112 C183.673134,977.145112 185.170597,976.517143 186.378228,975.261207 C187.58586,974.00527 188.165523,972.314586 188.165523,970.285765 C188.165523,968.256944 187.58586,966.66287 186.378228,965.406933 C185.170597,964.150997 183.673134,963.523028 181.837534,963.523028 Z" id="path-1"></path>
    </defs>
    <g id="app" stroke="none" stroke-width="1" fill="none" fill-rule="evenodd">
        <g id="Dashboard-Copy-13" transform="translate(-35.000000, -958.000000)">
            <g id="zceppadark">
                <use fill="#03c0c2" xlink:href="#path-1"></use>
                <use fill="#D1D1D1" xlink:href="#path-1"></use>
            </g>
        </g>
    </g>
</svg>